<?xml version="1.0" encoding="utf-8" standalone="no"?>
<!DOCTYPE svg PUBLIC "-//W3C//DTD SVG 1.1//EN"
  "http://www.w3.org/Graphics/SVG/1.1/DTD/svg11.dtd">
<svg xmlns:xlink="http://www.w3.org/1999/xlink" width="460.8pt" height="345.6pt" viewBox="0 0 460.8 345.6" xmlns="http://www.w3.org/2000/svg" version="1.1">
 <metadata>
  <rdf:RDF xmlns:dc="http://purl.org/dc/elements/1.1/" xmlns:cc="http://creativecommons.org/ns#" xmlns:rdf="http://www.w3.org/1999/02/22-rdf-syntax-ns#">
   <cc:Work>
    <dc:type rdf:resource="http://purl.org/dc/dcmitype/StillImage"/>
    <dc:date>2024-08-10T18:39:28.073232</dc:date>
    <dc:format>image/svg+xml</dc:format>
    <dc:creator>
     <cc:Agent>
      <dc:title>Matplotlib v3.9.1.post1, https://matplotlib.org/</dc:title>
     </cc:Agent>
    </dc:creator>
   </cc:Work>
  </rdf:RDF>
 </metadata>
 <defs>
  <style type="text/css">*{stroke-linejoin: round; stroke-linecap: butt}</style>
 </defs>
 <g id="figure_1">
  <g id="patch_1">
   <path d="M 0 345.6 
L 460.8 345.6 
L 460.8 0 
L 0 0 
z
" style="fill: #ffffff"/>
  </g>
  <g id="axes_1">
   <g id="patch_2">
    <path d="M 57.6 307.584 
L 414.72 307.584 
L 414.72 41.472 
L 57.6 41.472 
z
" style="fill: #ffffff"/>
   </g>
   <g id="matplotlib.axis_1">
    <g id="xtick_1">
     <g id="line2d_1">
      <defs>
       <path id="mf3be7912b6" d="M 0 0 
L 0 3.5 
" style="stroke: #000000; stroke-width: 0.8"/>
      </defs>
      <g>
       <use xlink:href="#mf3be7912b6" x="73.832727" y="307.584" style="stroke: #000000; stroke-width: 0.8"/>
      </g>
     </g>
     <g id="text_1">
      <!-- 0 -->
      <g transform="translate(70.651477 322.182437) scale(0.1 -0.1)">
       <defs>
        <path id="DejaVuSans-30" d="M 2034 4250 
Q 1547 4250 1301 3770 
Q 1056 3291 1056 2328 
Q 1056 1369 1301 889 
Q 1547 409 2034 409 
Q 2525 409 2770 889 
Q 3016 1369 3016 2328 
Q 3016 3291 2770 3770 
Q 2525 4250 2034 4250 
z
M 2034 4750 
Q 2819 4750 3233 4129 
Q 3647 3509 3647 2328 
Q 3647 1150 3233 529 
Q 2819 -91 2034 -91 
Q 1250 -91 836 529 
Q 422 1150 422 2328 
Q 422 3509 836 4129 
Q 1250 4750 2034 4750 
z
" transform="scale(0.015625)"/>
       </defs>
       <use xlink:href="#DejaVuSans-30"/>
      </g>
     </g>
    </g>
    <g id="xtick_2">
     <g id="line2d_2">
      <g>
       <use xlink:href="#mf3be7912b6" x="125.202117" y="307.584" style="stroke: #000000; stroke-width: 0.8"/>
      </g>
     </g>
     <g id="text_2">
      <!-- 50 -->
      <g transform="translate(118.839617 322.182437) scale(0.1 -0.1)">
       <defs>
        <path id="DejaVuSans-35" d="M 691 4666 
L 3169 4666 
L 3169 4134 
L 1269 4134 
L 1269 2991 
Q 1406 3038 1543 3061 
Q 1681 3084 1819 3084 
Q 2600 3084 3056 2656 
Q 3513 2228 3513 1497 
Q 3513 744 3044 326 
Q 2575 -91 1722 -91 
Q 1428 -91 1123 -41 
Q 819 9 494 109 
L 494 744 
Q 775 591 1075 516 
Q 1375 441 1709 441 
Q 2250 441 2565 725 
Q 2881 1009 2881 1497 
Q 2881 1984 2565 2268 
Q 2250 2553 1709 2553 
Q 1456 2553 1204 2497 
Q 953 2441 691 2322 
L 691 4666 
z
" transform="scale(0.015625)"/>
       </defs>
       <use xlink:href="#DejaVuSans-35"/>
       <use xlink:href="#DejaVuSans-30" x="63.623047"/>
      </g>
     </g>
    </g>
    <g id="xtick_3">
     <g id="line2d_3">
      <g>
       <use xlink:href="#mf3be7912b6" x="176.571507" y="307.584" style="stroke: #000000; stroke-width: 0.8"/>
      </g>
     </g>
     <g id="text_3">
      <!-- 100 -->
      <g transform="translate(167.027757 322.182437) scale(0.1 -0.1)">
       <defs>
        <path id="DejaVuSans-31" d="M 794 531 
L 1825 531 
L 1825 4091 
L 703 3866 
L 703 4441 
L 1819 4666 
L 2450 4666 
L 2450 531 
L 3481 531 
L 3481 0 
L 794 0 
L 794 531 
z
" transform="scale(0.015625)"/>
       </defs>
       <use xlink:href="#DejaVuSans-31"/>
       <use xlink:href="#DejaVuSans-30" x="63.623047"/>
       <use xlink:href="#DejaVuSans-30" x="127.246094"/>
      </g>
     </g>
    </g>
    <g id="xtick_4">
     <g id="line2d_4">
      <g>
       <use xlink:href="#mf3be7912b6" x="227.940898" y="307.584" style="stroke: #000000; stroke-width: 0.8"/>
      </g>
     </g>
     <g id="text_4">
      <!-- 150 -->
      <g transform="translate(218.397148 322.182437) scale(0.1 -0.1)">
       <use xlink:href="#DejaVuSans-31"/>
       <use xlink:href="#DejaVuSans-35" x="63.623047"/>
       <use xlink:href="#DejaVuSans-30" x="127.246094"/>
      </g>
     </g>
    </g>
    <g id="xtick_5">
     <g id="line2d_5">
      <g>
       <use xlink:href="#mf3be7912b6" x="279.310288" y="307.584" style="stroke: #000000; stroke-width: 0.8"/>
      </g>
     </g>
     <g id="text_5">
      <!-- 200 -->
      <g transform="translate(269.766538 322.182437) scale(0.1 -0.1)">
       <defs>
        <path id="DejaVuSans-32" d="M 1228 531 
L 3431 531 
L 3431 0 
L 469 0 
L 469 531 
Q 828 903 1448 1529 
Q 2069 2156 2228 2338 
Q 2531 2678 2651 2914 
Q 2772 3150 2772 3378 
Q 2772 3750 2511 3984 
Q 2250 4219 1831 4219 
Q 1534 4219 1204 4116 
Q 875 4013 500 3803 
L 500 4441 
Q 881 4594 1212 4672 
Q 1544 4750 1819 4750 
Q 2544 4750 2975 4387 
Q 3406 4025 3406 3419 
Q 3406 3131 3298 2873 
Q 3191 2616 2906 2266 
Q 2828 2175 2409 1742 
Q 1991 1309 1228 531 
z
" transform="scale(0.015625)"/>
       </defs>
       <use xlink:href="#DejaVuSans-32"/>
       <use xlink:href="#DejaVuSans-30" x="63.623047"/>
       <use xlink:href="#DejaVuSans-30" x="127.246094"/>
      </g>
     </g>
    </g>
    <g id="xtick_6">
     <g id="line2d_6">
      <g>
       <use xlink:href="#mf3be7912b6" x="330.679678" y="307.584" style="stroke: #000000; stroke-width: 0.8"/>
      </g>
     </g>
     <g id="text_6">
      <!-- 250 -->
      <g transform="translate(321.135928 322.182437) scale(0.1 -0.1)">
       <use xlink:href="#DejaVuSans-32"/>
       <use xlink:href="#DejaVuSans-35" x="63.623047"/>
       <use xlink:href="#DejaVuSans-30" x="127.246094"/>
      </g>
     </g>
    </g>
    <g id="xtick_7">
     <g id="line2d_7">
      <g>
       <use xlink:href="#mf3be7912b6" x="382.049068" y="307.584" style="stroke: #000000; stroke-width: 0.8"/>
      </g>
     </g>
     <g id="text_7">
      <!-- 300 -->
      <g transform="translate(372.505318 322.182437) scale(0.1 -0.1)">
       <defs>
        <path id="DejaVuSans-33" d="M 2597 2516 
Q 3050 2419 3304 2112 
Q 3559 1806 3559 1356 
Q 3559 666 3084 287 
Q 2609 -91 1734 -91 
Q 1441 -91 1130 -33 
Q 819 25 488 141 
L 488 750 
Q 750 597 1062 519 
Q 1375 441 1716 441 
Q 2309 441 2620 675 
Q 2931 909 2931 1356 
Q 2931 1769 2642 2001 
Q 2353 2234 1838 2234 
L 1294 2234 
L 1294 2753 
L 1863 2753 
Q 2328 2753 2575 2939 
Q 2822 3125 2822 3475 
Q 2822 3834 2567 4026 
Q 2313 4219 1838 4219 
Q 1578 4219 1281 4162 
Q 984 4106 628 3988 
L 628 4550 
Q 988 4650 1302 4700 
Q 1616 4750 1894 4750 
Q 2613 4750 3031 4423 
Q 3450 4097 3450 3541 
Q 3450 3153 3228 2886 
Q 3006 2619 2597 2516 
z
" transform="scale(0.015625)"/>
       </defs>
       <use xlink:href="#DejaVuSans-33"/>
       <use xlink:href="#DejaVuSans-30" x="63.623047"/>
       <use xlink:href="#DejaVuSans-30" x="127.246094"/>
      </g>
     </g>
    </g>
    <g id="text_8">
     <!-- Episode # -->
     <g transform="translate(210.743594 335.860562) scale(0.1 -0.1)">
      <defs>
       <path id="DejaVuSans-45" d="M 628 4666 
L 3578 4666 
L 3578 4134 
L 1259 4134 
L 1259 2753 
L 3481 2753 
L 3481 2222 
L 1259 2222 
L 1259 531 
L 3634 531 
L 3634 0 
L 628 0 
L 628 4666 
z
" transform="scale(0.015625)"/>
       <path id="DejaVuSans-70" d="M 1159 525 
L 1159 -1331 
L 581 -1331 
L 581 3500 
L 1159 3500 
L 1159 2969 
Q 1341 3281 1617 3432 
Q 1894 3584 2278 3584 
Q 2916 3584 3314 3078 
Q 3713 2572 3713 1747 
Q 3713 922 3314 415 
Q 2916 -91 2278 -91 
Q 1894 -91 1617 61 
Q 1341 213 1159 525 
z
M 3116 1747 
Q 3116 2381 2855 2742 
Q 2594 3103 2138 3103 
Q 1681 3103 1420 2742 
Q 1159 2381 1159 1747 
Q 1159 1113 1420 752 
Q 1681 391 2138 391 
Q 2594 391 2855 752 
Q 3116 1113 3116 1747 
z
" transform="scale(0.015625)"/>
       <path id="DejaVuSans-69" d="M 603 3500 
L 1178 3500 
L 1178 0 
L 603 0 
L 603 3500 
z
M 603 4863 
L 1178 4863 
L 1178 4134 
L 603 4134 
L 603 4863 
z
" transform="scale(0.015625)"/>
       <path id="DejaVuSans-73" d="M 2834 3397 
L 2834 2853 
Q 2591 2978 2328 3040 
Q 2066 3103 1784 3103 
Q 1356 3103 1142 2972 
Q 928 2841 928 2578 
Q 928 2378 1081 2264 
Q 1234 2150 1697 2047 
L 1894 2003 
Q 2506 1872 2764 1633 
Q 3022 1394 3022 966 
Q 3022 478 2636 193 
Q 2250 -91 1575 -91 
Q 1294 -91 989 -36 
Q 684 19 347 128 
L 347 722 
Q 666 556 975 473 
Q 1284 391 1588 391 
Q 1994 391 2212 530 
Q 2431 669 2431 922 
Q 2431 1156 2273 1281 
Q 2116 1406 1581 1522 
L 1381 1569 
Q 847 1681 609 1914 
Q 372 2147 372 2553 
Q 372 3047 722 3315 
Q 1072 3584 1716 3584 
Q 2034 3584 2315 3537 
Q 2597 3491 2834 3397 
z
" transform="scale(0.015625)"/>
       <path id="DejaVuSans-6f" d="M 1959 3097 
Q 1497 3097 1228 2736 
Q 959 2375 959 1747 
Q 959 1119 1226 758 
Q 1494 397 1959 397 
Q 2419 397 2687 759 
Q 2956 1122 2956 1747 
Q 2956 2369 2687 2733 
Q 2419 3097 1959 3097 
z
M 1959 3584 
Q 2709 3584 3137 3096 
Q 3566 2609 3566 1747 
Q 3566 888 3137 398 
Q 2709 -91 1959 -91 
Q 1206 -91 779 398 
Q 353 888 353 1747 
Q 353 2609 779 3096 
Q 1206 3584 1959 3584 
z
" transform="scale(0.015625)"/>
       <path id="DejaVuSans-64" d="M 2906 2969 
L 2906 4863 
L 3481 4863 
L 3481 0 
L 2906 0 
L 2906 525 
Q 2725 213 2448 61 
Q 2172 -91 1784 -91 
Q 1150 -91 751 415 
Q 353 922 353 1747 
Q 353 2572 751 3078 
Q 1150 3584 1784 3584 
Q 2172 3584 2448 3432 
Q 2725 3281 2906 2969 
z
M 947 1747 
Q 947 1113 1208 752 
Q 1469 391 1925 391 
Q 2381 391 2643 752 
Q 2906 1113 2906 1747 
Q 2906 2381 2643 2742 
Q 2381 3103 1925 3103 
Q 1469 3103 1208 2742 
Q 947 2381 947 1747 
z
" transform="scale(0.015625)"/>
       <path id="DejaVuSans-65" d="M 3597 1894 
L 3597 1613 
L 953 1613 
Q 991 1019 1311 708 
Q 1631 397 2203 397 
Q 2534 397 2845 478 
Q 3156 559 3463 722 
L 3463 178 
Q 3153 47 2828 -22 
Q 2503 -91 2169 -91 
Q 1331 -91 842 396 
Q 353 884 353 1716 
Q 353 2575 817 3079 
Q 1281 3584 2069 3584 
Q 2775 3584 3186 3129 
Q 3597 2675 3597 1894 
z
M 3022 2063 
Q 3016 2534 2758 2815 
Q 2500 3097 2075 3097 
Q 1594 3097 1305 2825 
Q 1016 2553 972 2059 
L 3022 2063 
z
" transform="scale(0.015625)"/>
       <path id="DejaVuSans-20" transform="scale(0.015625)"/>
       <path id="DejaVuSans-23" d="M 3272 2816 
L 2363 2816 
L 2100 1772 
L 3016 1772 
L 3272 2816 
z
M 2803 4594 
L 2478 3297 
L 3391 3297 
L 3719 4594 
L 4219 4594 
L 3897 3297 
L 4872 3297 
L 4872 2816 
L 3775 2816 
L 3519 1772 
L 4513 1772 
L 4513 1294 
L 3397 1294 
L 3072 0 
L 2572 0 
L 2894 1294 
L 1978 1294 
L 1656 0 
L 1153 0 
L 1478 1294 
L 494 1294 
L 494 1772 
L 1594 1772 
L 1856 2816 
L 850 2816 
L 850 3297 
L 1978 3297 
L 2297 4594 
L 2803 4594 
z
" transform="scale(0.015625)"/>
      </defs>
      <use xlink:href="#DejaVuSans-45"/>
      <use xlink:href="#DejaVuSans-70" x="63.183594"/>
      <use xlink:href="#DejaVuSans-69" x="126.660156"/>
      <use xlink:href="#DejaVuSans-73" x="154.443359"/>
      <use xlink:href="#DejaVuSans-6f" x="206.542969"/>
      <use xlink:href="#DejaVuSans-64" x="267.724609"/>
      <use xlink:href="#DejaVuSans-65" x="331.201172"/>
      <use xlink:href="#DejaVuSans-20" x="392.724609"/>
      <use xlink:href="#DejaVuSans-23" x="424.511719"/>
     </g>
    </g>
   </g>
   <g id="matplotlib.axis_2">
    <g id="ytick_1">
     <g id="line2d_8">
      <defs>
       <path id="m2f422d15ee" d="M 0 0 
L -3.5 0 
" style="stroke: #000000; stroke-width: 0.8"/>
      </defs>
      <g>
       <use xlink:href="#m2f422d15ee" x="57.6" y="289.045522" style="stroke: #000000; stroke-width: 0.8"/>
      </g>
     </g>
     <g id="text_9">
      <!-- −400 -->
      <g transform="translate(23.132812 292.844741) scale(0.1 -0.1)">
       <defs>
        <path id="DejaVuSans-2212" d="M 678 2272 
L 4684 2272 
L 4684 1741 
L 678 1741 
L 678 2272 
z
" transform="scale(0.015625)"/>
        <path id="DejaVuSans-34" d="M 2419 4116 
L 825 1625 
L 2419 1625 
L 2419 4116 
z
M 2253 4666 
L 3047 4666 
L 3047 1625 
L 3713 1625 
L 3713 1100 
L 3047 1100 
L 3047 0 
L 2419 0 
L 2419 1100 
L 313 1100 
L 313 1709 
L 2253 4666 
z
" transform="scale(0.015625)"/>
       </defs>
       <use xlink:href="#DejaVuSans-2212"/>
       <use xlink:href="#DejaVuSans-34" x="83.789062"/>
       <use xlink:href="#DejaVuSans-30" x="147.412109"/>
       <use xlink:href="#DejaVuSans-30" x="211.035156"/>
      </g>
     </g>
    </g>
    <g id="ytick_2">
     <g id="line2d_9">
      <g>
       <use xlink:href="#m2f422d15ee" x="57.6" y="251.988648" style="stroke: #000000; stroke-width: 0.8"/>
      </g>
     </g>
     <g id="text_10">
      <!-- −300 -->
      <g transform="translate(23.132812 255.787867) scale(0.1 -0.1)">
       <use xlink:href="#DejaVuSans-2212"/>
       <use xlink:href="#DejaVuSans-33" x="83.789062"/>
       <use xlink:href="#DejaVuSans-30" x="147.412109"/>
       <use xlink:href="#DejaVuSans-30" x="211.035156"/>
      </g>
     </g>
    </g>
    <g id="ytick_3">
     <g id="line2d_10">
      <g>
       <use xlink:href="#m2f422d15ee" x="57.6" y="214.931773" style="stroke: #000000; stroke-width: 0.8"/>
      </g>
     </g>
     <g id="text_11">
      <!-- −200 -->
      <g transform="translate(23.132812 218.730992) scale(0.1 -0.1)">
       <use xlink:href="#DejaVuSans-2212"/>
       <use xlink:href="#DejaVuSans-32" x="83.789062"/>
       <use xlink:href="#DejaVuSans-30" x="147.412109"/>
       <use xlink:href="#DejaVuSans-30" x="211.035156"/>
      </g>
     </g>
    </g>
    <g id="ytick_4">
     <g id="line2d_11">
      <g>
       <use xlink:href="#m2f422d15ee" x="57.6" y="177.874899" style="stroke: #000000; stroke-width: 0.8"/>
      </g>
     </g>
     <g id="text_12">
      <!-- −100 -->
      <g transform="translate(23.132812 181.674117) scale(0.1 -0.1)">
       <use xlink:href="#DejaVuSans-2212"/>
       <use xlink:href="#DejaVuSans-31" x="83.789062"/>
       <use xlink:href="#DejaVuSans-30" x="147.412109"/>
       <use xlink:href="#DejaVuSans-30" x="211.035156"/>
      </g>
     </g>
    </g>
    <g id="ytick_5">
     <g id="line2d_12">
      <g>
       <use xlink:href="#m2f422d15ee" x="57.6" y="140.818024" style="stroke: #000000; stroke-width: 0.8"/>
      </g>
     </g>
     <g id="text_13">
      <!-- 0 -->
      <g transform="translate(44.2375 144.617243) scale(0.1 -0.1)">
       <use xlink:href="#DejaVuSans-30"/>
      </g>
     </g>
    </g>
    <g id="ytick_6">
     <g id="line2d_13">
      <g>
       <use xlink:href="#m2f422d15ee" x="57.6" y="103.761149" style="stroke: #000000; stroke-width: 0.8"/>
      </g>
     </g>
     <g id="text_14">
      <!-- 100 -->
      <g transform="translate(31.5125 107.560368) scale(0.1 -0.1)">
       <use xlink:href="#DejaVuSans-31"/>
       <use xlink:href="#DejaVuSans-30" x="63.623047"/>
       <use xlink:href="#DejaVuSans-30" x="127.246094"/>
      </g>
     </g>
    </g>
    <g id="ytick_7">
     <g id="line2d_14">
      <g>
       <use xlink:href="#m2f422d15ee" x="57.6" y="66.704275" style="stroke: #000000; stroke-width: 0.8"/>
      </g>
     </g>
     <g id="text_15">
      <!-- 200 -->
      <g transform="translate(31.5125 70.503494) scale(0.1 -0.1)">
       <use xlink:href="#DejaVuSans-32"/>
       <use xlink:href="#DejaVuSans-30" x="63.623047"/>
       <use xlink:href="#DejaVuSans-30" x="127.246094"/>
      </g>
     </g>
    </g>
    <g id="text_16">
     <!-- Score -->
     <g transform="translate(17.053125 188.530344) rotate(-90) scale(0.1 -0.1)">
      <defs>
       <path id="DejaVuSans-53" d="M 3425 4513 
L 3425 3897 
Q 3066 4069 2747 4153 
Q 2428 4238 2131 4238 
Q 1616 4238 1336 4038 
Q 1056 3838 1056 3469 
Q 1056 3159 1242 3001 
Q 1428 2844 1947 2747 
L 2328 2669 
Q 3034 2534 3370 2195 
Q 3706 1856 3706 1288 
Q 3706 609 3251 259 
Q 2797 -91 1919 -91 
Q 1588 -91 1214 -16 
Q 841 59 441 206 
L 441 856 
Q 825 641 1194 531 
Q 1563 422 1919 422 
Q 2459 422 2753 634 
Q 3047 847 3047 1241 
Q 3047 1584 2836 1778 
Q 2625 1972 2144 2069 
L 1759 2144 
Q 1053 2284 737 2584 
Q 422 2884 422 3419 
Q 422 4038 858 4394 
Q 1294 4750 2059 4750 
Q 2388 4750 2728 4690 
Q 3069 4631 3425 4513 
z
" transform="scale(0.015625)"/>
       <path id="DejaVuSans-63" d="M 3122 3366 
L 3122 2828 
Q 2878 2963 2633 3030 
Q 2388 3097 2138 3097 
Q 1578 3097 1268 2742 
Q 959 2388 959 1747 
Q 959 1106 1268 751 
Q 1578 397 2138 397 
Q 2388 397 2633 464 
Q 2878 531 3122 666 
L 3122 134 
Q 2881 22 2623 -34 
Q 2366 -91 2075 -91 
Q 1284 -91 818 406 
Q 353 903 353 1747 
Q 353 2603 823 3093 
Q 1294 3584 2113 3584 
Q 2378 3584 2631 3529 
Q 2884 3475 3122 3366 
z
" transform="scale(0.015625)"/>
       <path id="DejaVuSans-72" d="M 2631 2963 
Q 2534 3019 2420 3045 
Q 2306 3072 2169 3072 
Q 1681 3072 1420 2755 
Q 1159 2438 1159 1844 
L 1159 0 
L 581 0 
L 581 3500 
L 1159 3500 
L 1159 2956 
Q 1341 3275 1631 3429 
Q 1922 3584 2338 3584 
Q 2397 3584 2469 3576 
Q 2541 3569 2628 3553 
L 2631 2963 
z
" transform="scale(0.015625)"/>
      </defs>
      <use xlink:href="#DejaVuSans-53"/>
      <use xlink:href="#DejaVuSans-63" x="63.476562"/>
      <use xlink:href="#DejaVuSans-6f" x="118.457031"/>
      <use xlink:href="#DejaVuSans-72" x="179.638672"/>
      <use xlink:href="#DejaVuSans-65" x="218.501953"/>
     </g>
    </g>
   </g>
   <g id="line2d_15">
    <path d="M 73.832727 152.621801 
L 74.860115 258.934265 
L 75.887503 216.289766 
L 76.914891 178.983258 
L 77.942278 170.292053 
L 78.969666 175.740056 
L 79.997054 211.430848 
L 81.024442 183.747464 
L 82.05183 237.396088 
L 83.079217 182.138777 
L 84.106605 233.892116 
L 85.133993 258.55952 
L 86.161381 174.439563 
L 87.188769 165.343594 
L 88.216157 264.047559 
L 89.243544 242.145462 
L 90.270932 160.873641 
L 91.29832 217.341979 
L 92.325708 174.055349 
L 93.353096 271.395484 
L 94.380483 174.96816 
L 95.407871 159.805653 
L 96.435259 181.518239 
L 97.462647 219.691088 
L 98.490035 171.395143 
L 100.54481 185.300784 
L 101.572198 224.164982 
L 102.599586 241.328989 
L 103.626974 104.398286 
L 104.654361 205.932671 
L 105.681749 180.467219 
L 106.709137 282.509948 
L 107.736525 199.442542 
L 109.7913 162.699572 
L 111.846076 195.652452 
L 112.873464 208.199189 
L 113.900852 172.434157 
L 114.928239 185.518636 
L 115.955627 228.413698 
L 116.983015 157.650678 
L 118.010403 229.973324 
L 119.037791 193.073459 
L 120.065178 171.66705 
L 121.092566 161.362946 
L 122.119954 180.659724 
L 123.147342 165.779318 
L 124.17473 157.52961 
L 125.202117 220.593875 
L 126.229505 176.121975 
L 127.256893 168.596388 
L 128.284281 218.971103 
L 129.311669 291.242599 
L 130.339056 210.773864 
L 131.366444 205.789558 
L 132.393832 164.457888 
L 133.42122 166.978351 
L 134.448608 179.137205 
L 135.475995 187.110973 
L 136.503383 231.813514 
L 137.530771 184.909168 
L 138.558159 214.4723 
L 139.585547 182.428837 
L 140.612934 177.77452 
L 141.640322 163.124391 
L 142.66771 139.676091 
L 143.695098 189.655057 
L 144.722486 157.066994 
L 145.749873 219.63834 
L 146.777261 191.194569 
L 147.804649 245.755039 
L 148.832037 221.440893 
L 149.859425 171.701952 
L 150.886812 276.935395 
L 151.9142 186.206418 
L 152.941588 227.23328 
L 153.968976 167.021743 
L 154.996364 179.781549 
L 156.023751 187.677719 
L 157.051139 164.143737 
L 158.078527 155.012996 
L 159.105915 165.657121 
L 160.133303 172.868956 
L 161.16069 196.65165 
L 162.188078 242.773917 
L 163.215466 203.61549 
L 164.242854 174.333854 
L 165.270242 212.640756 
L 166.297629 167.053843 
L 167.325017 183.339958 
L 168.352405 171.664327 
L 169.379793 152.359309 
L 170.407181 183.250248 
L 171.434568 137.550597 
L 172.461956 226.35771 
L 173.489344 150.164816 
L 174.516732 150.711438 
L 175.54412 204.029248 
L 176.571507 143.00669 
L 177.598895 184.066711 
L 178.626283 164.032607 
L 179.653671 180.522677 
L 180.681059 179.32852 
L 181.708446 199.459703 
L 182.735834 189.456452 
L 183.763222 193.865605 
L 184.79061 185.213376 
L 185.817998 167.121809 
L 186.845386 142.524013 
L 187.872773 160.286892 
L 188.900161 174.839771 
L 189.927549 172.609758 
L 190.954937 202.187329 
L 191.982325 157.293461 
L 193.009712 166.823944 
L 194.0371 154.714766 
L 195.064488 188.922799 
L 196.091876 190.875711 
L 197.119264 173.463413 
L 198.146651 184.403723 
L 199.174039 161.483088 
L 200.201427 150.779022 
L 201.228815 191.257113 
L 202.256203 182.166828 
L 203.28359 190.545875 
L 204.310978 150.246103 
L 205.338366 142.203768 
L 206.365754 129.718506 
L 207.393142 171.912024 
L 208.420529 164.523964 
L 209.447917 224.720699 
L 210.475305 168.595241 
L 211.502693 188.476536 
L 212.530081 191.097359 
L 213.557468 180.44897 
L 214.584856 173.03735 
L 215.612244 246.939681 
L 216.639632 153.607139 
L 217.66702 198.728635 
L 218.694407 174.87859 
L 219.721795 169.29316 
L 220.749183 137.786549 
L 221.776571 183.239823 
L 222.803959 166.766495 
L 223.831346 171.667803 
L 224.858734 263.509423 
L 225.886122 165.387008 
L 226.91351 173.344641 
L 227.940898 159.356408 
L 228.968285 163.399916 
L 229.995673 166.871843 
L 231.023061 191.805911 
L 232.050449 224.687901 
L 233.077837 183.269967 
L 234.105224 175.96502 
L 235.132612 169.640183 
L 236.16 167.139046 
L 237.187388 179.348915 
L 238.214776 143.101644 
L 239.242163 215.047874 
L 240.269551 176.1301 
L 241.296939 168.183305 
L 242.324327 162.93195 
L 243.351715 164.500711 
L 244.379102 155.989716 
L 245.40649 160.167802 
L 246.433878 154.704139 
L 247.461266 181.401193 
L 248.488654 141.713367 
L 249.516041 196.129731 
L 250.543429 153.953706 
L 251.570817 163.486197 
L 252.598205 206.087856 
L 253.625593 209.545108 
L 254.65298 146.627844 
L 255.680368 243.493747 
L 256.707756 168.119283 
L 257.735144 165.859688 
L 258.762532 142.951262 
L 259.789919 174.928603 
L 260.817307 183.437514 
L 261.844695 187.761521 
L 262.872083 148.712709 
L 263.899471 161.124312 
L 264.926858 147.863221 
L 265.954246 165.81339 
L 266.981634 140.850475 
L 268.009022 148.867415 
L 269.03641 151.088887 
L 270.063797 143.395188 
L 271.091185 147.220016 
L 272.118573 134.571966 
L 273.145961 134.439031 
L 274.173349 152.70926 
L 275.200736 208.888377 
L 276.228124 198.452532 
L 277.255512 140.378392 
L 278.2829 156.661193 
L 279.310288 129.509844 
L 281.365063 158.655078 
L 282.392451 165.175456 
L 283.419839 141.950664 
L 284.447227 129.610119 
L 285.474614 218.378347 
L 286.502002 106.937653 
L 287.52939 131.772165 
L 288.556778 168.916894 
L 289.584166 154.480522 
L 290.611554 129.972677 
L 291.638941 163.624721 
L 292.666329 153.458698 
L 293.693717 125.065615 
L 294.721105 101.309445 
L 295.748493 142.488662 
L 296.77588 119.585009 
L 297.803268 158.099719 
L 298.830656 120.078572 
L 299.858044 148.189861 
L 300.885432 145.436665 
L 301.912819 140.376836 
L 302.940207 53.568 
L 303.967595 122.51022 
L 304.994983 117.421004 
L 306.022371 123.05382 
L 307.049758 158.842893 
L 308.077146 199.009019 
L 309.104534 295.488 
L 310.131922 192.397577 
L 311.15931 127.82522 
L 312.186697 176.194521 
L 313.214085 140.588723 
L 314.241473 203.896333 
L 315.268861 137.899392 
L 316.296249 145.350696 
L 317.323636 153.684097 
L 318.351024 156.152314 
L 319.378412 134.140796 
L 320.4058 128.556 
L 321.433188 156.894261 
L 322.460575 153.301562 
L 323.487963 163.792656 
L 324.515351 180.686838 
L 325.542739 88.298332 
L 326.570127 148.27622 
L 327.597514 136.187013 
L 328.624902 111.43835 
L 329.65229 158.060724 
L 330.679678 160.939359 
L 331.707066 160.532258 
L 332.734453 167.76287 
L 333.761841 134.075692 
L 334.789229 155.810046 
L 335.816617 65.685679 
L 336.844005 95.711828 
L 337.871392 208.19066 
L 338.89878 141.74521 
L 339.926168 121.926589 
L 340.953556 117.067163 
L 341.980944 140.791353 
L 343.008331 126.534896 
L 344.035719 157.620444 
L 345.063107 152.189894 
L 346.090495 167.796178 
L 347.117883 122.798097 
L 348.14527 128.63225 
L 350.200046 159.27656 
L 351.227434 122.512339 
L 352.254822 98.76792 
L 353.282209 166.788384 
L 354.309597 130.966095 
L 355.336985 170.727794 
L 356.364373 117.129623 
L 357.391761 127.925567 
L 358.419148 160.44676 
L 359.446536 159.904403 
L 360.473924 160.731853 
L 361.501312 140.332154 
L 362.5287 157.647286 
L 363.556087 252.400374 
L 364.583475 77.538974 
L 365.610863 129.116309 
L 366.638251 143.573973 
L 367.665639 95.555562 
L 368.693026 135.241987 
L 369.720414 162.586869 
L 370.747802 156.509628 
L 371.77519 112.635189 
L 372.802578 145.69914 
L 373.829965 158.086125 
L 374.857353 244.974205 
L 375.884741 152.517208 
L 376.912129 166.77437 
L 377.939517 77.8093 
L 378.966904 162.496124 
L 379.994292 151.962613 
L 381.02168 156.129922 
L 382.049068 134.909635 
L 383.076456 166.600102 
L 384.103843 149.687652 
L 385.131231 136.66649 
L 386.158619 141.488891 
L 387.186007 157.330831 
L 388.213395 110.16323 
L 389.240783 157.551925 
L 390.26817 111.675875 
L 391.295558 135.324559 
L 392.322946 93.570055 
L 393.350334 145.372259 
L 394.377722 105.025008 
L 395.405109 267.74098 
L 396.432497 121.865998 
L 397.459885 108.802446 
L 398.487273 143.515305 
L 398.487273 143.515305 
" clip-path="url(#p9316111b84)" style="fill: none; stroke: #1f77b4; stroke-width: 1.5; stroke-linecap: square"/>
   </g>
   <g id="patch_3">
    <path d="M 57.6 307.584 
L 57.6 41.472 
" style="fill: none; stroke: #000000; stroke-width: 0.8; stroke-linejoin: miter; stroke-linecap: square"/>
   </g>
   <g id="patch_4">
    <path d="M 414.72 307.584 
L 414.72 41.472 
" style="fill: none; stroke: #000000; stroke-width: 0.8; stroke-linejoin: miter; stroke-linecap: square"/>
   </g>
   <g id="patch_5">
    <path d="M 57.6 307.584 
L 414.72 307.584 
" style="fill: none; stroke: #000000; stroke-width: 0.8; stroke-linejoin: miter; stroke-linecap: square"/>
   </g>
   <g id="patch_6">
    <path d="M 57.6 41.472 
L 414.72 41.472 
" style="fill: none; stroke: #000000; stroke-width: 0.8; stroke-linejoin: miter; stroke-linecap: square"/>
   </g>
   <g id="text_17">
    <!-- Score per Episode -->
    <g transform="translate(182.010938 35.472) scale(0.12 -0.12)">
     <use xlink:href="#DejaVuSans-53"/>
     <use xlink:href="#DejaVuSans-63" x="63.476562"/>
     <use xlink:href="#DejaVuSans-6f" x="118.457031"/>
     <use xlink:href="#DejaVuSans-72" x="179.638672"/>
     <use xlink:href="#DejaVuSans-65" x="218.501953"/>
     <use xlink:href="#DejaVuSans-20" x="280.025391"/>
     <use xlink:href="#DejaVuSans-70" x="311.8125"/>
     <use xlink:href="#DejaVuSans-65" x="375.289062"/>
     <use xlink:href="#DejaVuSans-72" x="436.8125"/>
     <use xlink:href="#DejaVuSans-20" x="477.925781"/>
     <use xlink:href="#DejaVuSans-45" x="509.712891"/>
     <use xlink:href="#DejaVuSans-70" x="572.896484"/>
     <use xlink:href="#DejaVuSans-69" x="636.373047"/>
     <use xlink:href="#DejaVuSans-73" x="664.15625"/>
     <use xlink:href="#DejaVuSans-6f" x="716.255859"/>
     <use xlink:href="#DejaVuSans-64" x="777.4375"/>
     <use xlink:href="#DejaVuSans-65" x="840.914062"/>
    </g>
   </g>
  </g>
 </g>
 <defs>
  <clipPath id="p9316111b84">
   <rect x="57.6" y="41.472" width="357.12" height="266.112"/>
  </clipPath>
 </defs>
</svg>
