<?xml version="1.0" encoding="utf-8" standalone="no"?>
<!DOCTYPE svg PUBLIC "-//W3C//DTD SVG 1.1//EN"
  "http://www.w3.org/Graphics/SVG/1.1/DTD/svg11.dtd">
<svg xmlns:xlink="http://www.w3.org/1999/xlink" width="460.8pt" height="345.6pt" viewBox="0 0 460.8 345.6" xmlns="http://www.w3.org/2000/svg" version="1.1">
 <metadata>
  <rdf:RDF xmlns:dc="http://purl.org/dc/elements/1.1/" xmlns:cc="http://creativecommons.org/ns#" xmlns:rdf="http://www.w3.org/1999/02/22-rdf-syntax-ns#">
   <cc:Work>
    <dc:type rdf:resource="http://purl.org/dc/dcmitype/StillImage"/>
    <dc:date>2024-08-11T15:50:09.510210</dc:date>
    <dc:format>image/svg+xml</dc:format>
    <dc:creator>
     <cc:Agent>
      <dc:title>Matplotlib v3.9.1.post1, https://matplotlib.org/</dc:title>
     </cc:Agent>
    </dc:creator>
   </cc:Work>
  </rdf:RDF>
 </metadata>
 <defs>
  <style type="text/css">*{stroke-linejoin: round; stroke-linecap: butt}</style>
 </defs>
 <g id="figure_1">
  <g id="patch_1">
   <path d="M 0 345.6 
L 460.8 345.6 
L 460.8 0 
L 0 0 
z
" style="fill: #ffffff"/>
  </g>
  <g id="axes_1">
   <g id="patch_2">
    <path d="M 57.6 307.584 
L 414.72 307.584 
L 414.72 41.472 
L 57.6 41.472 
z
" style="fill: #ffffff"/>
   </g>
   <g id="matplotlib.axis_1">
    <g id="xtick_1">
     <g id="line2d_1">
      <defs>
       <path id="m5c31d0306e" d="M 0 0 
L 0 3.5 
" style="stroke: #000000; stroke-width: 0.8"/>
      </defs>
      <g>
       <use xlink:href="#m5c31d0306e" x="73.832727" y="307.584" style="stroke: #000000; stroke-width: 0.8"/>
      </g>
     </g>
     <g id="text_1">
      <!-- 0 -->
      <g transform="translate(70.651477 322.182437) scale(0.1 -0.1)">
       <defs>
        <path id="DejaVuSans-30" d="M 2034 4250 
Q 1547 4250 1301 3770 
Q 1056 3291 1056 2328 
Q 1056 1369 1301 889 
Q 1547 409 2034 409 
Q 2525 409 2770 889 
Q 3016 1369 3016 2328 
Q 3016 3291 2770 3770 
Q 2525 4250 2034 4250 
z
M 2034 4750 
Q 2819 4750 3233 4129 
Q 3647 3509 3647 2328 
Q 3647 1150 3233 529 
Q 2819 -91 2034 -91 
Q 1250 -91 836 529 
Q 422 1150 422 2328 
Q 422 3509 836 4129 
Q 1250 4750 2034 4750 
z
" transform="scale(0.015625)"/>
       </defs>
       <use xlink:href="#DejaVuSans-30"/>
      </g>
     </g>
    </g>
    <g id="xtick_2">
     <g id="line2d_2">
      <g>
       <use xlink:href="#m5c31d0306e" x="115.322126" y="307.584" style="stroke: #000000; stroke-width: 0.8"/>
      </g>
     </g>
     <g id="text_2">
      <!-- 200 -->
      <g transform="translate(105.778376 322.182437) scale(0.1 -0.1)">
       <defs>
        <path id="DejaVuSans-32" d="M 1228 531 
L 3431 531 
L 3431 0 
L 469 0 
L 469 531 
Q 828 903 1448 1529 
Q 2069 2156 2228 2338 
Q 2531 2678 2651 2914 
Q 2772 3150 2772 3378 
Q 2772 3750 2511 3984 
Q 2250 4219 1831 4219 
Q 1534 4219 1204 4116 
Q 875 4013 500 3803 
L 500 4441 
Q 881 4594 1212 4672 
Q 1544 4750 1819 4750 
Q 2544 4750 2975 4387 
Q 3406 4025 3406 3419 
Q 3406 3131 3298 2873 
Q 3191 2616 2906 2266 
Q 2828 2175 2409 1742 
Q 1991 1309 1228 531 
z
" transform="scale(0.015625)"/>
       </defs>
       <use xlink:href="#DejaVuSans-32"/>
       <use xlink:href="#DejaVuSans-30" x="63.623047"/>
       <use xlink:href="#DejaVuSans-30" x="127.246094"/>
      </g>
     </g>
    </g>
    <g id="xtick_3">
     <g id="line2d_3">
      <g>
       <use xlink:href="#m5c31d0306e" x="156.811525" y="307.584" style="stroke: #000000; stroke-width: 0.8"/>
      </g>
     </g>
     <g id="text_3">
      <!-- 400 -->
      <g transform="translate(147.267775 322.182437) scale(0.1 -0.1)">
       <defs>
        <path id="DejaVuSans-34" d="M 2419 4116 
L 825 1625 
L 2419 1625 
L 2419 4116 
z
M 2253 4666 
L 3047 4666 
L 3047 1625 
L 3713 1625 
L 3713 1100 
L 3047 1100 
L 3047 0 
L 2419 0 
L 2419 1100 
L 313 1100 
L 313 1709 
L 2253 4666 
z
" transform="scale(0.015625)"/>
       </defs>
       <use xlink:href="#DejaVuSans-34"/>
       <use xlink:href="#DejaVuSans-30" x="63.623047"/>
       <use xlink:href="#DejaVuSans-30" x="127.246094"/>
      </g>
     </g>
    </g>
    <g id="xtick_4">
     <g id="line2d_4">
      <g>
       <use xlink:href="#m5c31d0306e" x="198.300924" y="307.584" style="stroke: #000000; stroke-width: 0.8"/>
      </g>
     </g>
     <g id="text_4">
      <!-- 600 -->
      <g transform="translate(188.757174 322.182437) scale(0.1 -0.1)">
       <defs>
        <path id="DejaVuSans-36" d="M 2113 2584 
Q 1688 2584 1439 2293 
Q 1191 2003 1191 1497 
Q 1191 994 1439 701 
Q 1688 409 2113 409 
Q 2538 409 2786 701 
Q 3034 994 3034 1497 
Q 3034 2003 2786 2293 
Q 2538 2584 2113 2584 
z
M 3366 4563 
L 3366 3988 
Q 3128 4100 2886 4159 
Q 2644 4219 2406 4219 
Q 1781 4219 1451 3797 
Q 1122 3375 1075 2522 
Q 1259 2794 1537 2939 
Q 1816 3084 2150 3084 
Q 2853 3084 3261 2657 
Q 3669 2231 3669 1497 
Q 3669 778 3244 343 
Q 2819 -91 2113 -91 
Q 1303 -91 875 529 
Q 447 1150 447 2328 
Q 447 3434 972 4092 
Q 1497 4750 2381 4750 
Q 2619 4750 2861 4703 
Q 3103 4656 3366 4563 
z
" transform="scale(0.015625)"/>
       </defs>
       <use xlink:href="#DejaVuSans-36"/>
       <use xlink:href="#DejaVuSans-30" x="63.623047"/>
       <use xlink:href="#DejaVuSans-30" x="127.246094"/>
      </g>
     </g>
    </g>
    <g id="xtick_5">
     <g id="line2d_5">
      <g>
       <use xlink:href="#m5c31d0306e" x="239.790322" y="307.584" style="stroke: #000000; stroke-width: 0.8"/>
      </g>
     </g>
     <g id="text_5">
      <!-- 800 -->
      <g transform="translate(230.246572 322.182437) scale(0.1 -0.1)">
       <defs>
        <path id="DejaVuSans-38" d="M 2034 2216 
Q 1584 2216 1326 1975 
Q 1069 1734 1069 1313 
Q 1069 891 1326 650 
Q 1584 409 2034 409 
Q 2484 409 2743 651 
Q 3003 894 3003 1313 
Q 3003 1734 2745 1975 
Q 2488 2216 2034 2216 
z
M 1403 2484 
Q 997 2584 770 2862 
Q 544 3141 544 3541 
Q 544 4100 942 4425 
Q 1341 4750 2034 4750 
Q 2731 4750 3128 4425 
Q 3525 4100 3525 3541 
Q 3525 3141 3298 2862 
Q 3072 2584 2669 2484 
Q 3125 2378 3379 2068 
Q 3634 1759 3634 1313 
Q 3634 634 3220 271 
Q 2806 -91 2034 -91 
Q 1263 -91 848 271 
Q 434 634 434 1313 
Q 434 1759 690 2068 
Q 947 2378 1403 2484 
z
M 1172 3481 
Q 1172 3119 1398 2916 
Q 1625 2713 2034 2713 
Q 2441 2713 2670 2916 
Q 2900 3119 2900 3481 
Q 2900 3844 2670 4047 
Q 2441 4250 2034 4250 
Q 1625 4250 1398 4047 
Q 1172 3844 1172 3481 
z
" transform="scale(0.015625)"/>
       </defs>
       <use xlink:href="#DejaVuSans-38"/>
       <use xlink:href="#DejaVuSans-30" x="63.623047"/>
       <use xlink:href="#DejaVuSans-30" x="127.246094"/>
      </g>
     </g>
    </g>
    <g id="xtick_6">
     <g id="line2d_6">
      <g>
       <use xlink:href="#m5c31d0306e" x="281.279721" y="307.584" style="stroke: #000000; stroke-width: 0.8"/>
      </g>
     </g>
     <g id="text_6">
      <!-- 1000 -->
      <g transform="translate(268.554721 322.182437) scale(0.1 -0.1)">
       <defs>
        <path id="DejaVuSans-31" d="M 794 531 
L 1825 531 
L 1825 4091 
L 703 3866 
L 703 4441 
L 1819 4666 
L 2450 4666 
L 2450 531 
L 3481 531 
L 3481 0 
L 794 0 
L 794 531 
z
" transform="scale(0.015625)"/>
       </defs>
       <use xlink:href="#DejaVuSans-31"/>
       <use xlink:href="#DejaVuSans-30" x="63.623047"/>
       <use xlink:href="#DejaVuSans-30" x="127.246094"/>
       <use xlink:href="#DejaVuSans-30" x="190.869141"/>
      </g>
     </g>
    </g>
    <g id="xtick_7">
     <g id="line2d_7">
      <g>
       <use xlink:href="#m5c31d0306e" x="322.76912" y="307.584" style="stroke: #000000; stroke-width: 0.8"/>
      </g>
     </g>
     <g id="text_7">
      <!-- 1200 -->
      <g transform="translate(310.04412 322.182437) scale(0.1 -0.1)">
       <use xlink:href="#DejaVuSans-31"/>
       <use xlink:href="#DejaVuSans-32" x="63.623047"/>
       <use xlink:href="#DejaVuSans-30" x="127.246094"/>
       <use xlink:href="#DejaVuSans-30" x="190.869141"/>
      </g>
     </g>
    </g>
    <g id="xtick_8">
     <g id="line2d_8">
      <g>
       <use xlink:href="#m5c31d0306e" x="364.258519" y="307.584" style="stroke: #000000; stroke-width: 0.8"/>
      </g>
     </g>
     <g id="text_8">
      <!-- 1400 -->
      <g transform="translate(351.533519 322.182437) scale(0.1 -0.1)">
       <use xlink:href="#DejaVuSans-31"/>
       <use xlink:href="#DejaVuSans-34" x="63.623047"/>
       <use xlink:href="#DejaVuSans-30" x="127.246094"/>
       <use xlink:href="#DejaVuSans-30" x="190.869141"/>
      </g>
     </g>
    </g>
    <g id="xtick_9">
     <g id="line2d_9">
      <g>
       <use xlink:href="#m5c31d0306e" x="405.747918" y="307.584" style="stroke: #000000; stroke-width: 0.8"/>
      </g>
     </g>
     <g id="text_9">
      <!-- 1600 -->
      <g transform="translate(393.022918 322.182437) scale(0.1 -0.1)">
       <use xlink:href="#DejaVuSans-31"/>
       <use xlink:href="#DejaVuSans-36" x="63.623047"/>
       <use xlink:href="#DejaVuSans-30" x="127.246094"/>
       <use xlink:href="#DejaVuSans-30" x="190.869141"/>
      </g>
     </g>
    </g>
    <g id="text_10">
     <!-- Episode # -->
     <g transform="translate(210.743594 335.860562) scale(0.1 -0.1)">
      <defs>
       <path id="DejaVuSans-45" d="M 628 4666 
L 3578 4666 
L 3578 4134 
L 1259 4134 
L 1259 2753 
L 3481 2753 
L 3481 2222 
L 1259 2222 
L 1259 531 
L 3634 531 
L 3634 0 
L 628 0 
L 628 4666 
z
" transform="scale(0.015625)"/>
       <path id="DejaVuSans-70" d="M 1159 525 
L 1159 -1331 
L 581 -1331 
L 581 3500 
L 1159 3500 
L 1159 2969 
Q 1341 3281 1617 3432 
Q 1894 3584 2278 3584 
Q 2916 3584 3314 3078 
Q 3713 2572 3713 1747 
Q 3713 922 3314 415 
Q 2916 -91 2278 -91 
Q 1894 -91 1617 61 
Q 1341 213 1159 525 
z
M 3116 1747 
Q 3116 2381 2855 2742 
Q 2594 3103 2138 3103 
Q 1681 3103 1420 2742 
Q 1159 2381 1159 1747 
Q 1159 1113 1420 752 
Q 1681 391 2138 391 
Q 2594 391 2855 752 
Q 3116 1113 3116 1747 
z
" transform="scale(0.015625)"/>
       <path id="DejaVuSans-69" d="M 603 3500 
L 1178 3500 
L 1178 0 
L 603 0 
L 603 3500 
z
M 603 4863 
L 1178 4863 
L 1178 4134 
L 603 4134 
L 603 4863 
z
" transform="scale(0.015625)"/>
       <path id="DejaVuSans-73" d="M 2834 3397 
L 2834 2853 
Q 2591 2978 2328 3040 
Q 2066 3103 1784 3103 
Q 1356 3103 1142 2972 
Q 928 2841 928 2578 
Q 928 2378 1081 2264 
Q 1234 2150 1697 2047 
L 1894 2003 
Q 2506 1872 2764 1633 
Q 3022 1394 3022 966 
Q 3022 478 2636 193 
Q 2250 -91 1575 -91 
Q 1294 -91 989 -36 
Q 684 19 347 128 
L 347 722 
Q 666 556 975 473 
Q 1284 391 1588 391 
Q 1994 391 2212 530 
Q 2431 669 2431 922 
Q 2431 1156 2273 1281 
Q 2116 1406 1581 1522 
L 1381 1569 
Q 847 1681 609 1914 
Q 372 2147 372 2553 
Q 372 3047 722 3315 
Q 1072 3584 1716 3584 
Q 2034 3584 2315 3537 
Q 2597 3491 2834 3397 
z
" transform="scale(0.015625)"/>
       <path id="DejaVuSans-6f" d="M 1959 3097 
Q 1497 3097 1228 2736 
Q 959 2375 959 1747 
Q 959 1119 1226 758 
Q 1494 397 1959 397 
Q 2419 397 2687 759 
Q 2956 1122 2956 1747 
Q 2956 2369 2687 2733 
Q 2419 3097 1959 3097 
z
M 1959 3584 
Q 2709 3584 3137 3096 
Q 3566 2609 3566 1747 
Q 3566 888 3137 398 
Q 2709 -91 1959 -91 
Q 1206 -91 779 398 
Q 353 888 353 1747 
Q 353 2609 779 3096 
Q 1206 3584 1959 3584 
z
" transform="scale(0.015625)"/>
       <path id="DejaVuSans-64" d="M 2906 2969 
L 2906 4863 
L 3481 4863 
L 3481 0 
L 2906 0 
L 2906 525 
Q 2725 213 2448 61 
Q 2172 -91 1784 -91 
Q 1150 -91 751 415 
Q 353 922 353 1747 
Q 353 2572 751 3078 
Q 1150 3584 1784 3584 
Q 2172 3584 2448 3432 
Q 2725 3281 2906 2969 
z
M 947 1747 
Q 947 1113 1208 752 
Q 1469 391 1925 391 
Q 2381 391 2643 752 
Q 2906 1113 2906 1747 
Q 2906 2381 2643 2742 
Q 2381 3103 1925 3103 
Q 1469 3103 1208 2742 
Q 947 2381 947 1747 
z
" transform="scale(0.015625)"/>
       <path id="DejaVuSans-65" d="M 3597 1894 
L 3597 1613 
L 953 1613 
Q 991 1019 1311 708 
Q 1631 397 2203 397 
Q 2534 397 2845 478 
Q 3156 559 3463 722 
L 3463 178 
Q 3153 47 2828 -22 
Q 2503 -91 2169 -91 
Q 1331 -91 842 396 
Q 353 884 353 1716 
Q 353 2575 817 3079 
Q 1281 3584 2069 3584 
Q 2775 3584 3186 3129 
Q 3597 2675 3597 1894 
z
M 3022 2063 
Q 3016 2534 2758 2815 
Q 2500 3097 2075 3097 
Q 1594 3097 1305 2825 
Q 1016 2553 972 2059 
L 3022 2063 
z
" transform="scale(0.015625)"/>
       <path id="DejaVuSans-20" transform="scale(0.015625)"/>
       <path id="DejaVuSans-23" d="M 3272 2816 
L 2363 2816 
L 2100 1772 
L 3016 1772 
L 3272 2816 
z
M 2803 4594 
L 2478 3297 
L 3391 3297 
L 3719 4594 
L 4219 4594 
L 3897 3297 
L 4872 3297 
L 4872 2816 
L 3775 2816 
L 3519 1772 
L 4513 1772 
L 4513 1294 
L 3397 1294 
L 3072 0 
L 2572 0 
L 2894 1294 
L 1978 1294 
L 1656 0 
L 1153 0 
L 1478 1294 
L 494 1294 
L 494 1772 
L 1594 1772 
L 1856 2816 
L 850 2816 
L 850 3297 
L 1978 3297 
L 2297 4594 
L 2803 4594 
z
" transform="scale(0.015625)"/>
      </defs>
      <use xlink:href="#DejaVuSans-45"/>
      <use xlink:href="#DejaVuSans-70" x="63.183594"/>
      <use xlink:href="#DejaVuSans-69" x="126.660156"/>
      <use xlink:href="#DejaVuSans-73" x="154.443359"/>
      <use xlink:href="#DejaVuSans-6f" x="206.542969"/>
      <use xlink:href="#DejaVuSans-64" x="267.724609"/>
      <use xlink:href="#DejaVuSans-65" x="331.201172"/>
      <use xlink:href="#DejaVuSans-20" x="392.724609"/>
      <use xlink:href="#DejaVuSans-23" x="424.511719"/>
     </g>
    </g>
   </g>
   <g id="matplotlib.axis_2">
    <g id="ytick_1">
     <g id="line2d_10">
      <defs>
       <path id="ma2746366c1" d="M 0 0 
L -3.5 0 
" style="stroke: #000000; stroke-width: 0.8"/>
      </defs>
      <g>
       <use xlink:href="#ma2746366c1" x="57.6" y="305.348229" style="stroke: #000000; stroke-width: 0.8"/>
      </g>
     </g>
     <g id="text_11">
      <!-- −600 -->
      <g transform="translate(23.132812 309.147447) scale(0.1 -0.1)">
       <defs>
        <path id="DejaVuSans-2212" d="M 678 2272 
L 4684 2272 
L 4684 1741 
L 678 1741 
L 678 2272 
z
" transform="scale(0.015625)"/>
       </defs>
       <use xlink:href="#DejaVuSans-2212"/>
       <use xlink:href="#DejaVuSans-36" x="83.789062"/>
       <use xlink:href="#DejaVuSans-30" x="147.412109"/>
       <use xlink:href="#DejaVuSans-30" x="211.035156"/>
      </g>
     </g>
    </g>
    <g id="ytick_2">
     <g id="line2d_11">
      <g>
       <use xlink:href="#ma2746366c1" x="57.6" y="250.982996" style="stroke: #000000; stroke-width: 0.8"/>
      </g>
     </g>
     <g id="text_12">
      <!-- −400 -->
      <g transform="translate(23.132812 254.782214) scale(0.1 -0.1)">
       <use xlink:href="#DejaVuSans-2212"/>
       <use xlink:href="#DejaVuSans-34" x="83.789062"/>
       <use xlink:href="#DejaVuSans-30" x="147.412109"/>
       <use xlink:href="#DejaVuSans-30" x="211.035156"/>
      </g>
     </g>
    </g>
    <g id="ytick_3">
     <g id="line2d_12">
      <g>
       <use xlink:href="#ma2746366c1" x="57.6" y="196.617763" style="stroke: #000000; stroke-width: 0.8"/>
      </g>
     </g>
     <g id="text_13">
      <!-- −200 -->
      <g transform="translate(23.132812 200.416982) scale(0.1 -0.1)">
       <use xlink:href="#DejaVuSans-2212"/>
       <use xlink:href="#DejaVuSans-32" x="83.789062"/>
       <use xlink:href="#DejaVuSans-30" x="147.412109"/>
       <use xlink:href="#DejaVuSans-30" x="211.035156"/>
      </g>
     </g>
    </g>
    <g id="ytick_4">
     <g id="line2d_13">
      <g>
       <use xlink:href="#ma2746366c1" x="57.6" y="142.25253" style="stroke: #000000; stroke-width: 0.8"/>
      </g>
     </g>
     <g id="text_14">
      <!-- 0 -->
      <g transform="translate(44.2375 146.051749) scale(0.1 -0.1)">
       <use xlink:href="#DejaVuSans-30"/>
      </g>
     </g>
    </g>
    <g id="ytick_5">
     <g id="line2d_14">
      <g>
       <use xlink:href="#ma2746366c1" x="57.6" y="87.887297" style="stroke: #000000; stroke-width: 0.8"/>
      </g>
     </g>
     <g id="text_15">
      <!-- 200 -->
      <g transform="translate(31.5125 91.686516) scale(0.1 -0.1)">
       <use xlink:href="#DejaVuSans-32"/>
       <use xlink:href="#DejaVuSans-30" x="63.623047"/>
       <use xlink:href="#DejaVuSans-30" x="127.246094"/>
      </g>
     </g>
    </g>
    <g id="text_16">
     <!-- Score -->
     <g transform="translate(17.053125 188.530344) rotate(-90) scale(0.1 -0.1)">
      <defs>
       <path id="DejaVuSans-53" d="M 3425 4513 
L 3425 3897 
Q 3066 4069 2747 4153 
Q 2428 4238 2131 4238 
Q 1616 4238 1336 4038 
Q 1056 3838 1056 3469 
Q 1056 3159 1242 3001 
Q 1428 2844 1947 2747 
L 2328 2669 
Q 3034 2534 3370 2195 
Q 3706 1856 3706 1288 
Q 3706 609 3251 259 
Q 2797 -91 1919 -91 
Q 1588 -91 1214 -16 
Q 841 59 441 206 
L 441 856 
Q 825 641 1194 531 
Q 1563 422 1919 422 
Q 2459 422 2753 634 
Q 3047 847 3047 1241 
Q 3047 1584 2836 1778 
Q 2625 1972 2144 2069 
L 1759 2144 
Q 1053 2284 737 2584 
Q 422 2884 422 3419 
Q 422 4038 858 4394 
Q 1294 4750 2059 4750 
Q 2388 4750 2728 4690 
Q 3069 4631 3425 4513 
z
" transform="scale(0.015625)"/>
       <path id="DejaVuSans-63" d="M 3122 3366 
L 3122 2828 
Q 2878 2963 2633 3030 
Q 2388 3097 2138 3097 
Q 1578 3097 1268 2742 
Q 959 2388 959 1747 
Q 959 1106 1268 751 
Q 1578 397 2138 397 
Q 2388 397 2633 464 
Q 2878 531 3122 666 
L 3122 134 
Q 2881 22 2623 -34 
Q 2366 -91 2075 -91 
Q 1284 -91 818 406 
Q 353 903 353 1747 
Q 353 2603 823 3093 
Q 1294 3584 2113 3584 
Q 2378 3584 2631 3529 
Q 2884 3475 3122 3366 
z
" transform="scale(0.015625)"/>
       <path id="DejaVuSans-72" d="M 2631 2963 
Q 2534 3019 2420 3045 
Q 2306 3072 2169 3072 
Q 1681 3072 1420 2755 
Q 1159 2438 1159 1844 
L 1159 0 
L 581 0 
L 581 3500 
L 1159 3500 
L 1159 2956 
Q 1341 3275 1631 3429 
Q 1922 3584 2338 3584 
Q 2397 3584 2469 3576 
Q 2541 3569 2628 3553 
L 2631 2963 
z
" transform="scale(0.015625)"/>
      </defs>
      <use xlink:href="#DejaVuSans-53"/>
      <use xlink:href="#DejaVuSans-63" x="63.476562"/>
      <use xlink:href="#DejaVuSans-6f" x="118.457031"/>
      <use xlink:href="#DejaVuSans-72" x="179.638672"/>
      <use xlink:href="#DejaVuSans-65" x="218.501953"/>
     </g>
    </g>
   </g>
   <g id="line2d_15">
    <path d="M 73.832727 204.674586 
L 74.040174 217.517228 
L 74.247621 164.504234 
L 74.455068 169.241943 
L 74.662515 185.562785 
L 74.869962 166.45892 
L 75.077409 202.776536 
L 75.284856 186.695056 
L 75.492303 273.305242 
L 75.69975 184.483332 
L 75.907197 219.043406 
L 76.114644 215.234086 
L 76.322091 216.819924 
L 76.529538 211.830964 
L 76.736985 238.452984 
L 76.944432 163.131805 
L 77.359326 211.766777 
L 77.566773 182.462937 
L 77.77422 183.022635 
L 77.981667 203.058796 
L 78.396561 170.596341 
L 78.811455 246.442868 
L 79.018902 207.594262 
L 79.226349 231.208612 
L 79.433796 171.902303 
L 79.641243 200.696006 
L 79.84869 172.196775 
L 80.056137 295.488 
L 80.263584 206.461073 
L 80.471031 210.527628 
L 80.678478 228.277861 
L 80.885925 168.425932 
L 81.093372 165.726334 
L 81.300819 150.493301 
L 81.715713 181.647689 
L 81.92316 219.875671 
L 82.130607 150.625336 
L 82.338054 195.174381 
L 82.545501 171.654324 
L 82.752948 197.146326 
L 82.960395 156.538114 
L 83.375289 219.679405 
L 83.582736 163.497653 
L 83.790183 154.70212 
L 83.99763 194.829636 
L 84.205077 162.875051 
L 84.412524 199.875031 
L 84.619971 194.039805 
L 85.034865 156.087195 
L 85.242312 171.458683 
L 85.449759 175.355386 
L 85.657206 160.39523 
L 85.864653 189.152396 
L 86.279547 147.463585 
L 86.486994 166.771222 
L 86.694441 226.153789 
L 86.901888 187.795728 
L 87.109335 172.074483 
L 87.316782 203.018078 
L 87.524229 158.621195 
L 87.731676 149.421854 
L 87.939123 169.129695 
L 88.14657 157.419129 
L 88.354017 160.22541 
L 88.561464 171.180467 
L 88.768911 152.655956 
L 88.976358 161.806304 
L 89.183805 186.338574 
L 89.391252 177.314587 
L 89.598699 176.865468 
L 89.806146 203.99954 
L 90.013593 168.031809 
L 90.22104 195.207961 
L 90.428487 159.158715 
L 90.635934 174.800068 
L 91.050828 170.849801 
L 91.258275 179.550549 
L 91.465722 224.052715 
L 91.880616 163.09665 
L 92.088063 216.241002 
L 92.29551 145.647468 
L 92.502957 177.049086 
L 92.710404 157.024167 
L 92.917851 170.896904 
L 93.125298 163.804293 
L 93.332745 167.013085 
L 93.540192 193.111382 
L 93.747639 186.847278 
L 93.955086 197.145218 
L 94.162533 173.981178 
L 94.577427 188.95049 
L 94.784874 165.662743 
L 94.992321 173.570335 
L 95.199768 200.250733 
L 95.407215 164.531733 
L 95.614662 184.718362 
L 96.029556 162.843178 
L 96.237003 187.7974 
L 96.44445 164.603082 
L 96.859344 181.853794 
L 97.066791 161.540256 
L 97.274238 183.91785 
L 97.481685 161.106475 
L 97.689132 161.19964 
L 97.896579 171.885119 
L 98.104026 141.552798 
L 98.311473 244.977143 
L 98.51892 167.282669 
L 98.726367 184.649065 
L 98.933814 183.270706 
L 99.141261 188.582328 
L 99.348708 179.058268 
L 99.556155 175.566987 
L 99.763602 162.076278 
L 100.178495 178.057372 
L 100.385942 159.283722 
L 100.593389 186.036746 
L 100.800836 169.92536 
L 101.008283 169.517966 
L 101.21573 175.938559 
L 101.423177 217.452764 
L 101.630624 184.564984 
L 101.838071 190.866813 
L 102.045518 162.227385 
L 102.252965 185.945118 
L 102.460412 188.076777 
L 102.667859 180.504345 
L 102.875306 160.261672 
L 103.082753 218.739061 
L 103.2902 155.538525 
L 103.497647 194.99572 
L 103.705094 157.183746 
L 103.912541 156.321938 
L 104.119988 169.327886 
L 104.327435 201.831831 
L 104.742329 164.073397 
L 104.949776 163.992952 
L 105.157223 201.249606 
L 105.36467 146.856326 
L 105.572117 155.84551 
L 105.779564 174.219651 
L 105.987011 175.000563 
L 106.194458 159.347265 
L 106.401905 161.022104 
L 106.609352 138.660348 
L 106.816799 163.036072 
L 107.024246 144.710018 
L 107.231693 202.235912 
L 107.43914 168.904969 
L 107.646587 172.322093 
L 108.061481 148.467769 
L 108.268928 217.965191 
L 108.476375 182.087542 
L 108.683822 171.036033 
L 108.891269 169.514488 
L 109.306163 150.65796 
L 109.51361 150.520907 
L 109.721057 151.309264 
L 109.928504 193.230121 
L 110.135951 206.056336 
L 110.343398 146.192705 
L 110.550845 171.780934 
L 110.758292 230.123455 
L 110.965739 166.865146 
L 111.173186 174.78739 
L 111.380633 156.94474 
L 111.795527 149.520616 
L 112.002974 152.283269 
L 112.210421 159.36726 
L 112.417868 219.327476 
L 112.832762 160.476626 
L 113.040209 233.466143 
L 113.247656 213.634806 
L 113.455103 145.221476 
L 113.66255 151.52441 
L 113.869997 195.733411 
L 114.077444 161.760411 
L 114.284891 193.649652 
L 114.492338 164.123056 
L 114.699785 160.13199 
L 114.907232 174.04134 
L 115.114679 123.099746 
L 115.322126 171.781327 
L 115.529573 121.985609 
L 115.73702 147.982873 
L 115.944467 154.655883 
L 116.151914 168.69723 
L 116.359361 214.954459 
L 116.566808 130.235644 
L 116.774255 192.449203 
L 116.981702 194.045741 
L 117.189149 135.271519 
L 117.396596 159.647044 
L 117.604043 136.841892 
L 117.81149 217.183884 
L 118.018937 168.435187 
L 118.226384 175.345765 
L 118.641278 172.879213 
L 118.848725 176.394071 
L 119.056172 124.3003 
L 119.263619 149.617345 
L 119.471066 126.424215 
L 119.678513 192.881189 
L 119.88596 145.607656 
L 120.093407 174.94469 
L 120.300854 175.889765 
L 120.508301 168.016222 
L 120.715748 195.818302 
L 120.923195 140.303118 
L 121.130642 148.326025 
L 121.338089 147.850506 
L 121.545536 136.888155 
L 121.752983 167.552102 
L 121.96043 160.343148 
L 122.167877 164.213417 
L 122.375324 165.47548 
L 122.582771 139.350348 
L 122.790218 162.169162 
L 122.997665 136.486328 
L 123.205112 157.988113 
L 123.412559 124.026383 
L 123.620006 173.995953 
L 123.827453 154.400252 
L 124.0349 163.199379 
L 124.242347 178.760562 
L 124.449794 178.193819 
L 124.657241 171.682074 
L 124.864688 173.74698 
L 125.279582 136.554821 
L 125.487029 172.195712 
L 125.694476 135.370524 
L 125.901923 148.177156 
L 126.10937 135.231313 
L 126.316817 161.917729 
L 126.524264 144.126042 
L 126.731711 141.394539 
L 127.146605 192.677695 
L 127.354052 166.325749 
L 127.561499 156.795092 
L 127.768946 166.658406 
L 127.976393 159.225883 
L 128.18384 159.621031 
L 128.391287 174.802304 
L 128.598734 159.58757 
L 128.806181 167.090315 
L 129.013628 140.091781 
L 129.221075 157.866571 
L 129.428522 147.749645 
L 129.635969 166.694449 
L 129.843416 165.458947 
L 130.050863 148.782386 
L 130.465757 153.049948 
L 130.673204 161.315844 
L 131.295545 140.031924 
L 131.502992 194.888252 
L 131.710439 154.595398 
L 131.917886 160.266309 
L 132.125333 154.742579 
L 132.33278 141.575463 
L 132.747674 158.220719 
L 133.162568 147.496409 
L 133.370015 170.219407 
L 133.577462 148.174855 
L 133.784909 148.701198 
L 133.992356 176.823884 
L 134.199802 156.892249 
L 134.407249 153.957102 
L 134.614696 200.039734 
L 134.822143 165.072285 
L 135.02959 151.447002 
L 135.237037 159.615824 
L 135.444484 143.227877 
L 135.651931 158.274527 
L 135.859378 156.289709 
L 136.066825 158.357649 
L 136.274272 155.387793 
L 136.481719 164.0592 
L 136.689166 154.258696 
L 136.896613 150.379776 
L 137.10406 155.193727 
L 137.311507 145.738702 
L 137.518954 154.703189 
L 137.726401 150.942191 
L 137.933848 158.591865 
L 138.141295 151.571481 
L 138.348742 156.727396 
L 138.556189 156.537562 
L 138.763636 154.285767 
L 138.971083 162.423118 
L 139.17853 158.083609 
L 139.385977 149.379219 
L 139.593424 162.262545 
L 139.800871 161.167024 
L 140.008318 153.694613 
L 140.215765 141.839198 
L 140.423212 167.963758 
L 140.630659 155.858044 
L 140.838106 151.119503 
L 141.045553 159.795913 
L 141.253 141.405624 
L 141.667894 161.425887 
L 141.875341 147.808679 
L 142.290235 154.23236 
L 142.497682 142.378419 
L 142.912576 156.396318 
L 143.120023 145.283784 
L 143.534917 155.444598 
L 143.949811 142.741739 
L 144.157258 142.637842 
L 144.364705 160.187556 
L 144.572152 161.036853 
L 144.779599 144.813926 
L 144.987046 153.050463 
L 145.194493 150.963334 
L 145.40194 152.620901 
L 145.609387 158.948487 
L 145.816834 139.194383 
L 146.024281 161.916049 
L 146.439175 141.51119 
L 146.646622 155.548353 
L 146.854069 152.076577 
L 147.061516 153.819703 
L 147.268963 151.553449 
L 147.47641 144.350851 
L 147.683857 154.076668 
L 147.891304 152.132675 
L 148.098751 156.925452 
L 148.306198 147.363106 
L 148.513645 145.591141 
L 148.721092 141.44363 
L 148.928539 148.759595 
L 149.343433 137.743106 
L 149.55088 149.703441 
L 149.758327 140.867259 
L 149.965774 141.582283 
L 150.173221 141.367871 
L 150.380668 142.745458 
L 150.588115 142.960184 
L 150.795562 151.703485 
L 151.003009 151.186533 
L 151.210456 148.709995 
L 151.417903 151.100938 
L 151.62535 140.976911 
L 151.832797 139.459156 
L 152.040244 149.516274 
L 152.247691 142.103265 
L 152.455138 158.594253 
L 152.870032 143.598644 
L 153.077479 80.931771 
L 153.284926 153.283738 
L 153.492373 145.963226 
L 153.69982 152.558926 
L 153.907267 137.218962 
L 154.322161 154.52504 
L 154.529608 152.539686 
L 154.737055 145.515807 
L 154.944502 150.802685 
L 155.151949 147.300084 
L 155.359396 153.191654 
L 155.566843 146.955772 
L 155.77429 197.893571 
L 155.981737 158.392409 
L 156.189184 142.081645 
L 156.396631 155.175923 
L 156.604078 140.116316 
L 156.811525 151.95739 
L 157.018972 139.754636 
L 157.226419 161.785647 
L 157.433866 138.598578 
L 157.84876 141.932401 
L 158.263654 151.804216 
L 158.471101 157.406672 
L 158.885995 134.323563 
L 159.093442 149.863459 
L 159.300889 153.223157 
L 159.508336 146.213112 
L 159.715783 144.969905 
L 159.92323 154.670761 
L 160.130677 130.074243 
L 160.338124 152.193919 
L 160.545571 151.380057 
L 160.753018 162.863278 
L 161.167912 143.98295 
L 161.375359 147.487141 
L 161.582806 155.004675 
L 161.790253 140.948648 
L 161.9977 153.600916 
L 162.205147 153.440308 
L 162.412594 149.643849 
L 162.620041 141.169657 
L 163.034935 147.186971 
L 163.242382 142.651705 
L 163.449829 146.428287 
L 163.657276 145.499344 
L 163.864723 164.666542 
L 164.07217 163.400989 
L 164.279617 146.582434 
L 164.487064 155.144178 
L 164.694511 157.715258 
L 164.901958 146.772378 
L 165.109405 142.359363 
L 165.316852 149.319017 
L 165.524299 145.748446 
L 165.731746 146.146986 
L 165.939193 155.059035 
L 166.14664 155.616436 
L 166.354087 156.700918 
L 166.561534 164.659915 
L 166.976428 142.360408 
L 167.183875 150.090129 
L 167.391322 146.498807 
L 167.598769 152.986942 
L 167.806216 144.826735 
L 168.013663 155.444111 
L 168.221109 154.289491 
L 168.428556 153.876777 
L 168.636003 145.691274 
L 168.84345 153.117798 
L 169.050897 133.879911 
L 169.258344 148.843284 
L 169.465791 145.066453 
L 169.673238 154.145203 
L 169.880685 152.272409 
L 170.088132 147.377454 
L 170.295579 153.730708 
L 170.503026 92.079719 
L 170.710473 149.767154 
L 171.125367 154.590671 
L 171.332814 158.81572 
L 171.540261 159.331715 
L 171.747708 141.415211 
L 171.955155 144.749782 
L 172.162602 143.472171 
L 172.370049 131.715791 
L 172.577496 152.167843 
L 172.784943 149.769822 
L 172.99239 144.050133 
L 173.407284 150.761051 
L 173.614731 142.08945 
L 173.822178 143.7465 
L 174.029625 153.767827 
L 174.237072 139.241187 
L 174.444519 137.062871 
L 174.651966 148.914786 
L 174.859413 143.579636 
L 175.06686 149.059896 
L 175.274307 149.900304 
L 175.481754 147.352771 
L 175.689201 137.928758 
L 175.896648 154.833131 
L 176.104095 138.511871 
L 176.311542 151.044095 
L 176.518989 147.947012 
L 176.726436 159.18276 
L 176.933883 133.631564 
L 177.14133 146.954941 
L 177.348777 144.011943 
L 177.556224 151.102636 
L 177.971118 139.911706 
L 178.178565 149.769699 
L 178.386012 140.357179 
L 178.593459 143.297276 
L 178.800906 150.347706 
L 179.008353 136.104537 
L 179.2158 138.237654 
L 179.423247 144.54851 
L 179.630694 144.630545 
L 179.838141 155.545196 
L 180.045588 139.218007 
L 180.253035 147.130826 
L 180.460482 142.063492 
L 180.667929 145.397541 
L 180.875376 231.351208 
L 181.082823 139.008843 
L 181.29027 143.035842 
L 181.497717 151.995959 
L 181.912611 134.856009 
L 182.120058 154.389002 
L 182.327505 137.838933 
L 182.742399 151.931209 
L 182.949846 142.415971 
L 183.157293 139.510521 
L 183.36474 148.195934 
L 183.779634 143.494172 
L 183.987081 145.656846 
L 184.194528 151.071587 
L 184.401975 144.984627 
L 184.609422 148.433105 
L 184.816869 149.426389 
L 185.024316 153.140387 
L 185.43921 134.262837 
L 185.646657 157.214337 
L 185.854104 138.741433 
L 186.061551 146.577763 
L 186.268998 139.447326 
L 186.476445 140.668726 
L 186.683892 137.30522 
L 186.891339 138.537274 
L 187.306233 146.16628 
L 187.51368 144.902217 
L 187.721127 153.753504 
L 187.928574 137.013137 
L 188.343468 147.213728 
L 188.550915 137.313765 
L 188.758362 139.527348 
L 188.965809 151.656899 
L 189.173256 139.660342 
L 189.380703 136.987065 
L 189.58815 147.183893 
L 189.795597 142.849127 
L 190.003044 141.08844 
L 190.210491 147.231283 
L 190.417938 148.546324 
L 190.625385 150.602324 
L 190.832832 148.835957 
L 191.040279 149.521362 
L 191.247726 144.63246 
L 191.455173 143.39326 
L 191.66262 150.767997 
L 191.870067 150.394887 
L 192.077514 137.267934 
L 192.284961 142.16752 
L 192.699855 143.823126 
L 192.907302 140.989492 
L 193.322196 153.515169 
L 193.529643 144.73078 
L 193.73709 153.501729 
L 193.944537 132.574694 
L 194.151984 153.02913 
L 194.359431 138.80644 
L 194.566878 152.157215 
L 194.774325 134.744795 
L 194.981772 150.543184 
L 195.189219 144.079139 
L 195.396666 149.195666 
L 195.81156 132.810628 
L 196.226454 154.113755 
L 196.433901 140.841468 
L 196.641348 148.918466 
L 196.848795 137.274802 
L 197.056242 137.485308 
L 197.263689 140.709424 
L 197.471136 138.833003 
L 197.678583 138.605249 
L 198.093477 152.812557 
L 198.300924 136.384824 
L 198.508371 141.365115 
L 198.715818 139.291449 
L 198.923265 143.163182 
L 199.130712 139.369722 
L 199.338159 142.559331 
L 199.545606 142.664698 
L 199.753053 146.276388 
L 199.9605 138.967239 
L 200.167947 138.660884 
L 200.375394 148.699492 
L 200.790288 134.448537 
L 201.205182 145.738299 
L 201.412629 141.712772 
L 201.620076 144.225041 
L 201.827523 126.895023 
L 202.03497 158.516023 
L 202.242416 137.651563 
L 202.449863 144.949327 
L 202.65731 77.273167 
L 202.864757 145.877168 
L 203.072204 138.901151 
L 203.279651 150.40521 
L 203.487098 149.383675 
L 203.694545 138.893242 
L 203.901992 138.171579 
L 204.109439 147.741545 
L 204.524333 93.575789 
L 204.73178 86.276008 
L 204.939227 99.324565 
L 205.146674 93.475781 
L 205.354121 107.222536 
L 205.561568 91.393953 
L 205.976462 143.247277 
L 206.183909 88.829303 
L 206.391356 147.989721 
L 206.80625 105.705578 
L 207.013697 105.078916 
L 207.221144 155.220817 
L 207.636038 112.712976 
L 207.843485 140.742845 
L 208.050932 83.405858 
L 208.258379 76.298683 
L 208.465826 96.880716 
L 208.673273 70.110301 
L 209.088167 104.321064 
L 209.295614 114.727309 
L 209.710508 77.065069 
L 209.917955 83.068131 
L 210.125402 155.759167 
L 210.332849 81.358969 
L 210.540296 119.109904 
L 210.747743 86.816397 
L 211.162637 73.439831 
L 211.370084 81.886711 
L 211.577531 66.153001 
L 211.784978 85.107907 
L 211.992425 78.210926 
L 212.199872 75.810987 
L 212.407319 84.931473 
L 212.614766 81.848281 
L 212.822213 67.888016 
L 213.02966 92.896969 
L 213.237107 92.214864 
L 213.444554 73.244301 
L 213.652001 66.202733 
L 213.859448 81.869246 
L 214.066895 73.308342 
L 214.274342 143.269087 
L 214.481789 145.742978 
L 214.689236 94.382877 
L 214.896683 91.520785 
L 215.10413 72.419259 
L 215.311577 83.983156 
L 215.519024 61.767329 
L 215.726471 75.928714 
L 215.933918 78.011068 
L 216.141365 66.242583 
L 216.348812 71.06437 
L 216.556259 82.276456 
L 216.763706 80.044184 
L 216.971153 70.476451 
L 217.386047 78.297631 
L 217.593494 78.282177 
L 217.800941 65.290244 
L 218.008388 143.39203 
L 218.215835 80.061232 
L 218.423282 77.604096 
L 218.630729 81.276484 
L 218.838176 68.540778 
L 219.25307 241.769183 
L 219.460517 72.201347 
L 219.667964 141.332015 
L 219.875411 71.549047 
L 220.082858 78.776532 
L 220.290305 68.638129 
L 220.497752 73.015234 
L 220.912646 86.295842 
L 221.120093 81.369813 
L 221.32754 87.904791 
L 221.534987 145.534946 
L 221.742434 71.241389 
L 221.949881 78.413794 
L 222.157328 69.521592 
L 222.364775 70.593473 
L 222.572222 85.245595 
L 222.779669 86.531634 
L 223.194563 74.70351 
L 223.40201 85.999567 
L 223.609457 74.995411 
L 223.816904 80.211478 
L 224.024351 71.665948 
L 224.231798 76.848031 
L 224.439245 174.67724 
L 224.646692 90.42621 
L 225.061586 70.481226 
L 225.269033 159.223288 
L 225.47648 73.068881 
L 225.683927 84.715837 
L 225.891374 87.497152 
L 226.098821 76.034762 
L 226.306268 72.404141 
L 226.513715 88.369433 
L 226.721162 73.714124 
L 226.928609 69.474617 
L 227.136056 139.078784 
L 227.343503 84.081404 
L 227.55095 75.732964 
L 227.758397 77.865091 
L 227.965844 78.589475 
L 228.173291 69.210001 
L 228.380738 90.126186 
L 228.588185 74.593529 
L 228.795632 84.462859 
L 229.003079 83.508288 
L 229.210526 85.377264 
L 229.417973 104.37734 
L 229.62542 74.588561 
L 229.832867 76.450911 
L 230.040314 63.850656 
L 230.455208 91.553147 
L 230.662655 74.36211 
L 230.870102 66.584685 
L 231.077549 88.654845 
L 231.284996 75.840033 
L 231.492443 69.923365 
L 231.69989 70.870178 
L 231.907337 85.229218 
L 232.114784 72.4019 
L 232.322231 79.684063 
L 232.529678 80.692088 
L 232.737125 76.014694 
L 232.944572 78.836418 
L 233.152019 79.793633 
L 233.359466 73.853103 
L 233.566913 77.749931 
L 233.77436 78.599307 
L 233.981807 82.067924 
L 234.189254 76.789723 
L 234.396701 77.843159 
L 234.604148 60.395733 
L 235.019042 86.512897 
L 235.226489 70.056042 
L 235.433936 70.437135 
L 235.641383 86.069292 
L 235.84883 86.083685 
L 236.263723 68.791721 
L 236.678617 76.139788 
L 236.886064 67.073785 
L 237.093511 76.473127 
L 237.300958 78.677157 
L 237.508405 72.718599 
L 237.715852 148.215443 
L 237.923299 75.820142 
L 238.338193 85.701946 
L 238.54564 81.34987 
L 238.753087 73.692579 
L 238.960534 126.872178 
L 239.167981 77.032383 
L 239.375428 76.914317 
L 239.582875 76.394328 
L 239.790322 78.569589 
L 239.997769 71.263566 
L 240.205216 76.317072 
L 240.62011 74.272574 
L 240.827557 74.469581 
L 241.035004 78.200647 
L 241.242451 69.785925 
L 241.449898 80.51039 
L 241.657345 78.252281 
L 241.864792 71.460722 
L 242.072239 74.056773 
L 242.279686 79.473817 
L 242.487133 72.835381 
L 242.69458 78.017863 
L 242.902027 76.104981 
L 243.109474 82.039849 
L 243.316921 72.259454 
L 243.524368 72.785646 
L 243.731815 77.343267 
L 243.939262 77.405886 
L 244.146709 87.69297 
L 244.354156 66.400151 
L 244.561603 77.122944 
L 244.76905 81.044904 
L 244.976497 69.238326 
L 245.183944 70.079196 
L 245.391391 63.481075 
L 245.598838 67.942352 
L 245.806285 80.64772 
L 246.013732 79.245618 
L 246.221179 68.251108 
L 246.428626 84.901411 
L 246.636073 73.829764 
L 246.84352 75.434923 
L 247.050967 89.712887 
L 247.258414 75.075653 
L 247.465861 69.457461 
L 247.673308 74.7396 
L 247.880755 74.151828 
L 248.088202 139.981621 
L 248.295649 81.923791 
L 248.503096 65.39629 
L 248.710543 78.133972 
L 248.91799 73.197345 
L 249.125437 76.594205 
L 249.332884 71.07161 
L 249.540331 78.190907 
L 249.747778 76.559201 
L 249.955225 68.090089 
L 250.370119 83.836788 
L 250.577566 82.89226 
L 250.99246 155.648192 
L 251.199907 80.600816 
L 251.407354 68.333473 
L 251.614801 66.335071 
L 251.822248 75.375511 
L 252.029695 74.638836 
L 252.237142 75.552404 
L 252.444589 75.558011 
L 252.652036 68.311361 
L 252.859483 76.213164 
L 253.06693 68.563214 
L 253.274377 75.959359 
L 253.481824 68.82316 
L 253.689271 148.42344 
L 253.896718 69.927685 
L 254.311612 74.382948 
L 254.519059 80.508576 
L 254.726506 71.136375 
L 254.933953 69.077803 
L 255.1414 79.203068 
L 255.348847 69.824276 
L 255.556294 74.930903 
L 255.763741 177.193787 
L 255.971188 73.614055 
L 256.178635 67.412786 
L 256.386082 68.956538 
L 256.593529 74.86658 
L 256.800976 74.403572 
L 257.008423 69.953968 
L 257.21587 73.053263 
L 257.423317 94.38593 
L 257.630764 66.988919 
L 257.838211 71.910575 
L 258.045658 89.58997 
L 258.253105 74.113264 
L 258.460552 84.629431 
L 258.667999 121.573337 
L 258.875446 77.188484 
L 259.082893 62.343191 
L 259.29034 75.363243 
L 259.497787 72.073544 
L 259.912681 154.66962 
L 260.120128 72.771183 
L 260.327575 76.65517 
L 260.535022 73.775756 
L 260.742469 74.073199 
L 260.949916 73.643353 
L 261.157363 67.076439 
L 261.36481 75.988524 
L 261.779704 66.200935 
L 261.987151 65.380412 
L 262.194598 68.613267 
L 262.402045 67.529554 
L 262.609492 75.945523 
L 262.816939 69.47534 
L 263.024386 74.321404 
L 263.231833 68.488245 
L 263.43928 74.554684 
L 263.854174 66.221955 
L 264.061621 71.630348 
L 264.269068 66.668428 
L 264.891409 77.590583 
L 265.098856 68.137859 
L 265.306303 71.2112 
L 265.51375 69.426702 
L 265.721197 72.978689 
L 265.928644 80.345734 
L 266.136091 107.382582 
L 266.343538 73.489626 
L 266.550985 74.585657 
L 266.758432 62.033932 
L 266.965879 62.799431 
L 267.173326 78.347318 
L 267.380773 69.342869 
L 267.58822 77.976872 
L 267.795667 63.521905 
L 268.003114 73.216795 
L 268.210561 53.568 
L 268.418008 74.918122 
L 268.625455 66.730217 
L 268.832902 73.709892 
L 269.040349 71.383249 
L 269.247796 84.258627 
L 269.455243 74.64644 
L 269.870137 72.308593 
L 270.077584 60.843022 
L 270.492477 72.587792 
L 270.699924 77.16603 
L 270.907371 71.459508 
L 271.114818 151.027615 
L 271.322265 76.703842 
L 271.529712 69.665139 
L 271.737159 75.000871 
L 271.944606 90.589274 
L 272.3595 67.842056 
L 272.566947 74.019643 
L 272.774394 69.107009 
L 272.981841 74.527749 
L 273.189288 62.614524 
L 273.396735 67.016152 
L 273.604182 67.401351 
L 273.811629 80.382066 
L 274.019076 67.344556 
L 274.226523 76.209384 
L 274.43397 75.653383 
L 274.641417 103.723961 
L 274.848864 77.046428 
L 275.263758 65.607543 
L 275.471205 75.361706 
L 275.678652 69.320347 
L 275.886099 85.566571 
L 276.093546 150.428367 
L 276.300993 58.453396 
L 276.50844 58.520052 
L 276.923334 68.574163 
L 277.130781 70.05457 
L 277.338228 82.436963 
L 277.545675 73.753243 
L 277.753122 72.461655 
L 277.960569 74.830136 
L 278.168016 85.571042 
L 278.375463 76.297159 
L 278.58291 76.485125 
L 278.790357 73.039176 
L 278.997804 65.990747 
L 279.205251 76.548592 
L 279.412698 65.717242 
L 279.620145 91.214965 
L 279.827592 130.993096 
L 280.035039 66.633761 
L 280.242486 101.154203 
L 280.449933 64.94459 
L 280.65738 68.508547 
L 280.864827 93.766813 
L 281.487168 71.517493 
L 281.694615 79.603869 
L 281.902062 71.992079 
L 282.109509 83.171795 
L 282.524403 66.550598 
L 282.73185 76.571269 
L 282.939297 67.815769 
L 283.146744 138.602126 
L 283.354191 68.422832 
L 283.561638 81.598675 
L 283.769085 66.179764 
L 284.183979 75.988879 
L 284.391426 58.370427 
L 284.80632 75.764777 
L 285.013767 71.90923 
L 285.428661 61.051379 
L 285.636108 75.068295 
L 285.843555 72.03593 
L 286.051002 74.891055 
L 286.258449 72.214376 
L 286.465896 84.393861 
L 286.673343 128.045536 
L 286.88079 71.006313 
L 287.088237 70.304947 
L 287.295684 86.553601 
L 287.710578 77.424903 
L 287.918025 79.988497 
L 288.125472 79.226606 
L 288.332919 69.70615 
L 288.540366 138.438935 
L 288.747813 62.779158 
L 288.95526 57.328285 
L 289.162707 72.683538 
L 289.370154 77.585083 
L 289.577601 59.62517 
L 289.785048 70.532392 
L 289.992495 67.328589 
L 290.199942 70.119094 
L 290.407389 145.027343 
L 290.614836 67.759301 
L 290.822283 66.790576 
L 291.02973 71.539014 
L 291.237177 64.030512 
L 291.444624 87.64909 
L 291.652071 73.692001 
L 291.859518 69.731001 
L 292.066965 69.918778 
L 292.274412 66.208463 
L 292.481859 59.909021 
L 292.689306 80.424025 
L 292.896753 76.037244 
L 293.1042 66.027591 
L 293.311647 73.1462 
L 293.519094 72.493116 
L 293.726541 85.345421 
L 293.933988 60.566547 
L 294.141435 72.787377 
L 294.348882 56.784228 
L 294.556329 84.176812 
L 294.763776 65.711107 
L 294.971223 69.041996 
L 295.17867 70.431852 
L 295.386117 145.764717 
L 295.593564 62.414123 
L 295.801011 90.231551 
L 296.008458 68.222055 
L 296.215905 72.43911 
L 296.423352 78.958768 
L 296.630799 69.700243 
L 296.838246 72.159454 
L 297.045693 67.074213 
L 297.25314 73.926176 
L 297.460587 67.911116 
L 297.668034 66.896384 
L 297.875481 75.15362 
L 298.082928 57.659095 
L 298.290375 68.920159 
L 298.497822 123.709912 
L 298.705269 63.27265 
L 298.912716 64.179349 
L 299.120163 72.397536 
L 299.32761 58.181401 
L 299.535057 74.751811 
L 299.742504 69.484917 
L 299.949951 76.557125 
L 300.157398 73.567997 
L 300.364845 80.638634 
L 300.779739 72.074708 
L 300.987186 69.899608 
L 301.194633 78.945701 
L 301.40208 77.557857 
L 301.609527 65.550537 
L 301.816974 74.497109 
L 302.024421 137.225778 
L 302.231868 73.285821 
L 302.439315 69.336097 
L 302.646762 73.767408 
L 302.854209 63.772859 
L 303.269103 79.635441 
L 303.47655 69.059803 
L 303.683997 68.917828 
L 303.891444 78.200555 
L 304.098891 67.645197 
L 304.306337 66.480274 
L 304.928678 81.368697 
L 305.136125 75.987183 
L 305.343572 133.0126 
L 305.551019 74.134035 
L 305.758466 73.527351 
L 305.965913 81.696091 
L 306.17336 64.761531 
L 306.380807 57.995789 
L 306.588254 66.379911 
L 306.795701 63.203498 
L 307.003148 82.294164 
L 307.418042 68.398049 
L 307.625489 71.252227 
L 307.832936 78.994649 
L 308.040383 71.272525 
L 308.24783 57.50554 
L 308.455277 73.422524 
L 308.662724 71.802507 
L 308.870171 135.752949 
L 309.077618 78.049138 
L 309.285065 68.331864 
L 309.492512 67.43384 
L 309.699959 74.612899 
L 309.907406 88.024992 
L 310.114853 92.816984 
L 310.3223 75.332737 
L 310.529747 72.246688 
L 310.737194 73.027056 
L 311.359535 61.241053 
L 311.774429 73.48558 
L 311.981876 80.244987 
L 312.189323 66.545705 
L 312.39677 75.513677 
L 312.604217 145.299642 
L 312.811664 75.538433 
L 313.019111 74.963309 
L 313.226558 66.013281 
L 313.434005 64.486379 
L 313.641452 64.550615 
L 313.848899 74.555978 
L 314.056346 70.698622 
L 314.263793 76.783518 
L 314.47124 63.503095 
L 314.678687 71.58023 
L 314.886134 71.008634 
L 315.093581 65.343825 
L 315.301028 73.148994 
L 315.508475 75.214277 
L 315.715922 66.188224 
L 315.923369 77.41661 
L 316.130816 70.729037 
L 316.338263 71.926127 
L 316.54571 126.997565 
L 316.753157 78.774424 
L 316.960604 83.764876 
L 317.168051 69.875561 
L 317.375498 73.605456 
L 317.582945 74.386283 
L 317.790392 71.064512 
L 317.997839 82.281374 
L 318.205286 80.713123 
L 318.412733 70.20654 
L 318.62018 71.27718 
L 318.827627 65.705884 
L 319.035074 75.458718 
L 319.242521 71.837229 
L 319.449968 74.007024 
L 319.657415 70.279361 
L 319.864862 69.844979 
L 320.072309 107.927366 
L 320.279756 75.805907 
L 320.487203 74.679252 
L 320.69465 72.381559 
L 320.902097 76.724322 
L 321.109544 76.71671 
L 321.316991 62.616603 
L 321.731885 78.777656 
L 321.939332 72.412944 
L 322.146779 127.559708 
L 322.354226 81.354511 
L 322.561673 74.600938 
L 322.76912 75.737736 
L 322.976567 79.855091 
L 323.184014 69.281411 
L 323.391461 76.687051 
L 323.598908 72.640127 
L 323.806355 73.814376 
L 324.013802 72.007859 
L 324.221249 73.809605 
L 324.428696 66.883354 
L 324.636143 64.853352 
L 324.84359 150.913628 
L 325.051037 77.549081 
L 325.258484 63.415121 
L 325.465931 70.265687 
L 325.673378 83.968386 
L 325.880825 70.991448 
L 326.088272 68.082581 
L 326.295719 75.813622 
L 326.503166 68.085989 
L 326.710613 67.164204 
L 326.91806 144.878996 
L 327.125507 76.021286 
L 327.332954 139.87837 
L 327.540401 73.371854 
L 327.747848 78.212974 
L 327.955295 105.066421 
L 328.162742 56.970107 
L 328.370189 67.597033 
L 328.577636 70.31688 
L 328.785083 151.199235 
L 328.99253 74.899935 
L 329.199977 77.955996 
L 329.407424 75.656675 
L 329.614871 74.600653 
L 329.822318 70.121689 
L 330.029765 69.293546 
L 330.237212 73.645696 
L 330.652106 63.985932 
L 330.859553 72.3531 
L 331.067 67.223394 
L 331.274447 67.471407 
L 331.481894 67.923682 
L 331.689341 89.001133 
L 331.896788 64.505791 
L 332.104235 78.753826 
L 332.311682 65.976732 
L 332.519129 67.995156 
L 332.726576 68.353664 
L 332.934023 146.162591 
L 333.14147 68.51129 
L 333.348917 83.913727 
L 333.556364 135.215533 
L 333.763811 76.996046 
L 333.971258 78.208093 
L 334.178705 63.256674 
L 334.386152 167.252725 
L 334.593599 73.074422 
L 334.801046 76.768578 
L 335.008493 137.15717 
L 335.21594 70.200084 
L 335.423387 140.313759 
L 335.630834 79.109209 
L 335.838281 142.603999 
L 336.045728 66.431793 
L 336.253175 76.47149 
L 336.460622 75.13761 
L 336.668069 148.082523 
L 336.875516 60.592399 
L 337.082963 76.981557 
L 337.29041 79.559398 
L 337.497857 64.055706 
L 337.705304 111.998568 
L 337.912751 78.619502 
L 338.120198 125.255574 
L 338.327644 130.966134 
L 338.535091 69.346864 
L 338.742538 69.858656 
L 338.949985 81.271521 
L 339.157432 58.252583 
L 339.364879 74.945154 
L 339.572326 146.071431 
L 339.779773 67.412564 
L 339.98722 153.201739 
L 340.194667 143.379057 
L 340.402114 145.254105 
L 340.609561 67.779307 
L 340.817008 76.145096 
L 341.024455 65.010047 
L 341.231902 133.084877 
L 341.439349 73.936552 
L 341.646796 82.991328 
L 342.269137 64.510571 
L 342.476584 72.190478 
L 342.684031 69.242237 
L 342.891478 71.970574 
L 343.098925 150.730087 
L 343.306372 145.686847 
L 343.513819 76.540505 
L 343.721266 70.356396 
L 343.928713 68.186686 
L 344.13616 70.027401 
L 344.343607 66.328975 
L 344.551054 67.774937 
L 344.758501 75.5237 
L 344.965948 70.212075 
L 345.380842 83.915235 
L 345.588289 70.268332 
L 345.795736 132.414978 
L 346.003183 147.153107 
L 346.21063 66.544678 
L 346.418077 82.415634 
L 346.625524 130.878799 
L 346.832971 135.817511 
L 347.040418 69.893404 
L 347.247865 67.234891 
L 347.455312 75.661253 
L 347.662759 77.062033 
L 347.870206 149.629602 
L 348.077653 127.334686 
L 348.2851 72.887311 
L 348.492547 62.953949 
L 348.699994 67.66919 
L 348.907441 136.484335 
L 349.114888 66.283718 
L 349.322335 66.897765 
L 349.529782 77.189826 
L 349.737229 81.941437 
L 349.944676 72.014957 
L 350.152123 68.265178 
L 350.35957 60.575449 
L 350.567017 71.522974 
L 350.774464 62.973164 
L 350.981911 66.057456 
L 351.189358 128.379814 
L 351.396805 124.335298 
L 351.604252 138.575529 
L 351.811699 102.610873 
L 352.019146 124.56327 
L 352.226593 58.222047 
L 352.43404 68.773135 
L 352.641487 138.995955 
L 352.848934 129.781425 
L 353.056381 132.793442 
L 353.471275 73.29878 
L 353.678722 127.981969 
L 353.886169 74.081699 
L 354.093616 133.058162 
L 354.301063 140.580593 
L 354.50851 136.307992 
L 354.715957 147.801149 
L 354.923404 67.197083 
L 355.130851 65.72933 
L 355.338298 153.780525 
L 355.545745 71.918266 
L 355.753192 142.901513 
L 355.960639 82.727087 
L 356.168086 92.475919 
L 356.375533 70.649912 
L 356.58298 63.787403 
L 356.790427 65.639555 
L 357.205321 74.597051 
L 357.412768 67.913067 
L 357.620215 68.741091 
L 357.827662 70.898458 
L 358.035109 66.379559 
L 358.242556 66.830928 
L 358.65745 85.040098 
L 359.279791 71.534422 
L 359.487238 69.171112 
L 359.694685 85.926485 
L 359.902132 67.643645 
L 360.109579 136.716859 
L 360.317026 77.724635 
L 360.524473 135.959644 
L 360.73192 151.868808 
L 360.939367 71.679594 
L 361.146814 70.758676 
L 361.354261 78.731596 
L 361.769155 64.172966 
L 361.976602 80.978558 
L 362.184049 132.688335 
L 362.391496 141.733892 
L 362.598943 144.094239 
L 362.80639 139.998832 
L 363.013837 73.075687 
L 363.221284 136.080015 
L 363.428731 134.108611 
L 363.636178 67.402854 
L 363.843625 73.603758 
L 364.051072 67.118647 
L 364.258519 83.829459 
L 364.465966 65.417044 
L 364.673413 150.817089 
L 364.88086 74.921089 
L 365.088307 82.241937 
L 365.295754 70.210519 
L 365.503201 81.986606 
L 365.710648 72.819683 
L 365.918095 79.171919 
L 366.125542 67.162444 
L 366.332989 71.379135 
L 366.540436 129.698376 
L 366.747883 72.315675 
L 366.95533 63.015794 
L 367.162777 71.925879 
L 367.370224 58.445182 
L 367.785118 89.545767 
L 367.992565 67.956285 
L 368.200012 65.120098 
L 368.407459 75.611927 
L 368.614906 62.135312 
L 368.822353 68.720879 
L 369.0298 64.593095 
L 369.237247 79.583156 
L 369.444694 143.664826 
L 369.652141 66.103473 
L 369.859588 131.237496 
L 370.067035 136.05997 
L 370.274482 146.882378 
L 370.481929 136.293015 
L 370.689376 75.919981 
L 370.896823 84.986382 
L 371.10427 66.156094 
L 371.311717 74.92246 
L 371.519164 70.399436 
L 371.726611 145.059802 
L 371.934058 68.843033 
L 372.141505 145.597412 
L 372.348951 74.262466 
L 372.763845 65.205717 
L 372.971292 146.306121 
L 373.178739 71.329493 
L 373.386186 103.325298 
L 373.593633 63.589474 
L 373.80108 62.258668 
L 374.008527 69.386182 
L 374.423421 90.776766 
L 374.630868 141.007007 
L 374.838315 68.219834 
L 375.045762 127.941622 
L 375.253209 135.482005 
L 375.460656 133.70052 
L 375.668103 66.194126 
L 375.87555 68.810889 
L 376.082997 67.448449 
L 376.290444 134.812219 
L 376.497891 110.25612 
L 376.705338 65.075612 
L 376.912785 148.046749 
L 377.120232 68.522178 
L 377.327679 137.281835 
L 377.535126 59.371769 
L 377.742573 71.567356 
L 377.95002 71.787077 
L 378.572361 68.73904 
L 378.779808 77.453251 
L 378.987255 131.793527 
L 379.194702 68.733845 
L 379.402149 78.605522 
L 379.609596 74.525565 
L 379.817043 65.137702 
L 380.02449 84.587096 
L 380.231937 63.794978 
L 380.439384 153.162907 
L 380.646831 70.044733 
L 380.854278 73.50326 
L 381.061725 86.605351 
L 381.269172 68.590656 
L 381.476619 134.756896 
L 381.684066 68.34656 
L 381.891513 78.163845 
L 382.09896 140.247245 
L 382.306407 151.549095 
L 382.513854 71.122949 
L 382.721301 132.811041 
L 382.928748 72.366372 
L 383.136195 69.95112 
L 383.343642 79.786074 
L 383.551089 71.626879 
L 383.758536 70.885939 
L 383.965983 82.175316 
L 384.17343 68.309193 
L 384.380877 69.437814 
L 384.588324 144.272911 
L 385.003218 130.406628 
L 385.210665 153.493347 
L 385.418112 65.06255 
L 385.625559 91.25319 
L 385.833006 68.460486 
L 386.040453 72.427644 
L 386.2479 71.232378 
L 386.455347 136.19431 
L 386.662794 140.840426 
L 386.870241 69.889362 
L 387.077688 133.597927 
L 387.285135 70.075369 
L 387.492582 84.130667 
L 387.700029 63.300974 
L 387.907476 64.131384 
L 388.114923 79.679767 
L 388.32237 66.84731 
L 388.529817 72.493083 
L 388.944711 75.987594 
L 389.152158 79.178002 
L 389.359605 96.558171 
L 389.567052 71.540769 
L 389.774499 139.247508 
L 389.981946 76.838811 
L 390.189393 62.706568 
L 390.39684 65.090051 
L 390.604287 65.241857 
L 390.811734 67.406293 
L 391.019181 218.23161 
L 391.226628 81.046591 
L 391.434075 83.950823 
L 391.641522 80.950462 
L 391.848969 63.183126 
L 392.056416 65.48816 
L 392.263863 80.654719 
L 392.47131 68.938787 
L 392.678757 72.249598 
L 392.886204 60.622494 
L 393.093651 76.018888 
L 393.301098 81.167517 
L 393.923439 61.512436 
L 394.130886 81.598815 
L 394.338333 68.863704 
L 394.54578 80.519746 
L 394.753227 139.164105 
L 394.960674 74.014627 
L 395.168121 74.147522 
L 395.375568 70.951463 
L 395.790462 72.68438 
L 395.997909 84.135429 
L 396.205356 74.133135 
L 396.412803 74.069893 
L 396.62025 71.825021 
L 396.827697 142.533906 
L 397.035144 63.178231 
L 397.242591 66.266528 
L 397.450038 72.968819 
L 397.657485 170.144104 
L 397.864932 77.184477 
L 398.072379 67.998837 
L 398.279826 84.814159 
L 398.487273 181.276339 
L 398.487273 181.276339 
" clip-path="url(#p53dce96226)" style="fill: none; stroke: #1f77b4; stroke-width: 1.5; stroke-linecap: square"/>
   </g>
   <g id="patch_3">
    <path d="M 57.6 307.584 
L 57.6 41.472 
" style="fill: none; stroke: #000000; stroke-width: 0.8; stroke-linejoin: miter; stroke-linecap: square"/>
   </g>
   <g id="patch_4">
    <path d="M 414.72 307.584 
L 414.72 41.472 
" style="fill: none; stroke: #000000; stroke-width: 0.8; stroke-linejoin: miter; stroke-linecap: square"/>
   </g>
   <g id="patch_5">
    <path d="M 57.6 307.584 
L 414.72 307.584 
" style="fill: none; stroke: #000000; stroke-width: 0.8; stroke-linejoin: miter; stroke-linecap: square"/>
   </g>
   <g id="patch_6">
    <path d="M 57.6 41.472 
L 414.72 41.472 
" style="fill: none; stroke: #000000; stroke-width: 0.8; stroke-linejoin: miter; stroke-linecap: square"/>
   </g>
   <g id="text_17">
    <!-- Score per Episode -->
    <g transform="translate(182.010938 35.472) scale(0.12 -0.12)">
     <use xlink:href="#DejaVuSans-53"/>
     <use xlink:href="#DejaVuSans-63" x="63.476562"/>
     <use xlink:href="#DejaVuSans-6f" x="118.457031"/>
     <use xlink:href="#DejaVuSans-72" x="179.638672"/>
     <use xlink:href="#DejaVuSans-65" x="218.501953"/>
     <use xlink:href="#DejaVuSans-20" x="280.025391"/>
     <use xlink:href="#DejaVuSans-70" x="311.8125"/>
     <use xlink:href="#DejaVuSans-65" x="375.289062"/>
     <use xlink:href="#DejaVuSans-72" x="436.8125"/>
     <use xlink:href="#DejaVuSans-20" x="477.925781"/>
     <use xlink:href="#DejaVuSans-45" x="509.712891"/>
     <use xlink:href="#DejaVuSans-70" x="572.896484"/>
     <use xlink:href="#DejaVuSans-69" x="636.373047"/>
     <use xlink:href="#DejaVuSans-73" x="664.15625"/>
     <use xlink:href="#DejaVuSans-6f" x="716.255859"/>
     <use xlink:href="#DejaVuSans-64" x="777.4375"/>
     <use xlink:href="#DejaVuSans-65" x="840.914062"/>
    </g>
   </g>
  </g>
 </g>
 <defs>
  <clipPath id="p53dce96226">
   <rect x="57.6" y="41.472" width="357.12" height="266.112"/>
  </clipPath>
 </defs>
</svg>
